<svg xmlns="http://www.w3.org/2000/svg" viewBox="0 0 150.81 145"><defs><style>.cls-1{fill:#1d1d1b;}</style></defs><g id="Layer_2" data-name="Layer 2"><g id="Layer_1-2" data-name="Layer 1"><path class="cls-1" d="M25.73,81.74H36.91a1.68,1.68,0,0,0,1-.21,1.49,1.49,0,0,0,.45-.84h.44v3.88h-.44a1.49,1.49,0,0,0-.45-.83,1.59,1.59,0,0,0-1-.22H22.34v-.44a1.49,1.49,0,0,0,.84-.45,1.66,1.66,0,0,0,.21-1V67.05a1.68,1.68,0,0,0-.21-1,1.49,1.49,0,0,0-.84-.44V65.2h4.44v.44a1.53,1.53,0,0,0-.84.44,1.68,1.68,0,0,0-.21,1Z"/><path class="cls-1" d="M42.14,81.67V67.05a1.68,1.68,0,0,0-.21-1,1.49,1.49,0,0,0-.83-.44V65.2h4.43v.44a1.49,1.49,0,0,0-.83.44,1.67,1.67,0,0,0-.22,1V81.67a1.65,1.65,0,0,0,.22,1,1.49,1.49,0,0,0,.83.45v.44H41.1v-.44a1.49,1.49,0,0,0,.83-.45A1.66,1.66,0,0,0,42.14,81.67Z"/><path class="cls-1" d="M50.52,81.67V67.05a1.76,1.76,0,0,0-.2-1,1.49,1.49,0,0,0-.84-.45V65.2h9.26a13.61,13.61,0,0,1,5.53.86A7.76,7.76,0,0,1,67.8,69.7a10.28,10.28,0,0,1-.36,10,7.2,7.2,0,0,1-3.23,3,14,14,0,0,1-5.47.86H49.48v-.44a1.49,1.49,0,0,0,.84-.45A1.76,1.76,0,0,0,50.52,81.67Zm2.34.07h5.75a9.78,9.78,0,0,0,4.76-.88,5.89,5.89,0,0,0,2.49-3,9.58,9.58,0,0,0,.6-3.45A8,8,0,0,0,64.74,69a5.09,5.09,0,0,0-2.35-1.55A12.36,12.36,0,0,0,58.61,67H52.86Z"/><path class="cls-1" d="M73.45,81.67V67.05a1.59,1.59,0,0,0-.22-1,1.49,1.49,0,0,0-.83-.44V65.2h4.43v.44a1.49,1.49,0,0,0-.83.44,1.68,1.68,0,0,0-.21,1V81.67a1.66,1.66,0,0,0,.21,1,1.49,1.49,0,0,0,.83.45v.44H72.4v-.44a1.49,1.49,0,0,0,.83-.45A1.58,1.58,0,0,0,73.45,81.67Z"/><path class="cls-1" d="M83.77,68.06V81.67a1.66,1.66,0,0,0,.21,1,1.46,1.46,0,0,0,.84.45v.44h-4v-.44a1.49,1.49,0,0,0,.84-.45,1.66,1.66,0,0,0,.21-1V67.05a1.67,1.67,0,0,0-.22-1,1.49,1.49,0,0,0-.83-.44V65.2h6v.44c-.56.18-.85.47-.85.85a1.93,1.93,0,0,0,.63,1.18L97.32,79.78V67.05a1.68,1.68,0,0,0-.21-1,1.49,1.49,0,0,0-.83-.44V65.2h4v.44a1.49,1.49,0,0,0-.84.44,1.68,1.68,0,0,0-.21,1V81.67a1.76,1.76,0,0,0,.2,1,1.49,1.49,0,0,0,.85.45v.44h-4.8v-.44c.57-.14.85-.36.85-.67s-.26-.64-.78-1.23Z"/><path class="cls-1" d="M123.93,66.91l-2.25,3.6-.38-.22a3.77,3.77,0,0,0,.17-.77c0-.29-.52-.73-1.56-1.33a10.68,10.68,0,0,0-5.34-1.42,8.44,8.44,0,0,0-5.76,2,7.22,7.22,0,0,0-2.55,5.71,7,7,0,0,0,2.34,5.44A8.67,8.67,0,0,0,114.68,82a11.39,11.39,0,0,0,3.62-.57,8.43,8.43,0,0,0,2.91-1.56V76.52h-4.12a1.68,1.68,0,0,0-1,.21,1.38,1.38,0,0,0-.44.84h-.44V73.69h.44a1.38,1.38,0,0,0,.44.84,1.68,1.68,0,0,0,1,.21h7.22v.44a1.43,1.43,0,0,0-.84.43,1.72,1.72,0,0,0-.21,1v1.89a1.72,1.72,0,0,0,.21,1,1.43,1.43,0,0,0,.84.43v.38a14.77,14.77,0,0,1-9.9,3.65,11,11,0,0,1-7.29-2.39,9.36,9.36,0,0,1-2.39-3.11,9.16,9.16,0,0,1-.93-4,9,9,0,0,1,1.87-5.55,9.7,9.7,0,0,1,4.43-3.22,12.64,12.64,0,0,1,4.42-.77,13.12,13.12,0,0,1,3.71.49,22,22,0,0,1,4,1.75,1.51,1.51,0,0,0,.54.2c.14,0,.39-.22.77-.66Z"/><path class="cls-1" d="M18.37,92.07a5.23,5.23,0,0,1,3.89,5.4A5.92,5.92,0,0,1,21.21,101a5.44,5.44,0,0,1-2.78,2.11,15.78,15.78,0,0,1-5,.61H.43v-.52a1.59,1.59,0,0,0,.84-.44,1.68,1.68,0,0,0,.21-1V83.26a1.7,1.7,0,0,0-.21-1,1.46,1.46,0,0,0-.84-.43v-.53H13.75a14.6,14.6,0,0,1,3.25.31,6.38,6.38,0,0,1,2.27,1,5.36,5.36,0,0,1,2.25,4.64A5,5,0,0,1,18.37,92.07ZM4.05,91h8.61a25.84,25.84,0,0,0,2.74-.11,6.71,6.71,0,0,0,1.67-.43,3.06,3.06,0,0,0,1.48-1.21,3.43,3.43,0,0,0,.52-1.9,3.48,3.48,0,0,0-.93-2.45,4,4,0,0,0-2-1.11,16.54,16.54,0,0,0-3.69-.3H4.05Zm0,10.57h9a24.66,24.66,0,0,0,2.86-.12,6.06,6.06,0,0,0,1.73-.48,3.42,3.42,0,0,0,1.53-1.38,4,4,0,0,0,.55-2.12,4,4,0,0,0-3-4,16.19,16.19,0,0,0-3.83-.33H4.05Z"/><path class="cls-1" d="M29.05,87.19V96.6a14.2,14.2,0,0,0,.21,3A2.54,2.54,0,0,0,30.2,101c1,.78,2.66,1.18,5,1.18,2.63,0,4.4-.49,5.33-1.45a2.67,2.67,0,0,0,.67-1.33,15.73,15.73,0,0,0,.17-2.79V87.19a1.6,1.6,0,0,0-.22-1,1.49,1.49,0,0,0-.83-.45v-.44h4v.44a1.49,1.49,0,0,0-.83.45,1.54,1.54,0,0,0-.22,1v9.89a10.45,10.45,0,0,1-.42,3.55,4.78,4.78,0,0,1-2.64,2.6,13.41,13.41,0,0,1-5.27.83q-4.8,0-6.74-1.78A4.24,4.24,0,0,1,27,100.36a12.39,12.39,0,0,1-.32-3.28V87.19a1.62,1.62,0,0,0-.21-1,1.49,1.49,0,0,0-.84-.45v-.44H30.1v.44a1.53,1.53,0,0,0-.84.45A1.68,1.68,0,0,0,29.05,87.19Z"/><path class="cls-1" d="M49,101.82V87.19a1.62,1.62,0,0,0-.21-1,1.49,1.49,0,0,0-.84-.45v-.44h4.44v.44a1.53,1.53,0,0,0-.84.45,1.62,1.62,0,0,0-.21,1v14.63a1.66,1.66,0,0,0,.21,1,1.53,1.53,0,0,0,.84.45v.44H48v-.44a1.49,1.49,0,0,0,.84-.45A1.66,1.66,0,0,0,49,101.82Z"/><path class="cls-1" d="M59.75,101.89H70.93a1.7,1.7,0,0,0,1-.21,1.49,1.49,0,0,0,.45-.84h.44v3.88h-.44a1.49,1.49,0,0,0-.45-.84,1.7,1.7,0,0,0-1-.21H56.36v-.44a1.49,1.49,0,0,0,.84-.45,1.66,1.66,0,0,0,.21-1V87.19a1.62,1.62,0,0,0-.21-1,1.49,1.49,0,0,0-.84-.45v-.44H60.8v.44a1.49,1.49,0,0,0-.84.45,1.62,1.62,0,0,0-.21,1Z"/><path class="cls-1" d="M76.16,101.82V87.19a1.78,1.78,0,0,0-.2-1,1.49,1.49,0,0,0-.84-.45v-.44h9.26a13.41,13.41,0,0,1,5.53.87,7.73,7.73,0,0,1,3.53,3.63,10.21,10.21,0,0,1,1.12,4.67,10.09,10.09,0,0,1-1.48,5.32,7.23,7.23,0,0,1-3.23,3,13.81,13.81,0,0,1-5.47.87H75.12v-.44a1.49,1.49,0,0,0,.84-.45A1.76,1.76,0,0,0,76.16,101.82Zm2.34.07h5.75A9.76,9.76,0,0,0,89,101a5.87,5.87,0,0,0,2.49-3,9.62,9.62,0,0,0,.6-3.45,8,8,0,0,0-1.72-5.37A5.21,5.21,0,0,0,88,87.58a12.85,12.85,0,0,0-3.79-.45H78.5Z"/><path class="cls-1" d="M99.09,101.82V87.19a1.62,1.62,0,0,0-.21-1,1.53,1.53,0,0,0-.84-.45v-.44h4.44v.44a1.49,1.49,0,0,0-.84.45,1.62,1.62,0,0,0-.21,1v14.63a1.66,1.66,0,0,0,.21,1,1.49,1.49,0,0,0,.84.45v.44H98v-.44a1.53,1.53,0,0,0,.84-.45A1.66,1.66,0,0,0,99.09,101.82Z"/><path class="cls-1" d="M109.41,88.21v13.61a1.66,1.66,0,0,0,.21,1,1.46,1.46,0,0,0,.84.45v.44h-4v-.44a1.46,1.46,0,0,0,.84-.45,1.66,1.66,0,0,0,.21-1V87.19a1.54,1.54,0,0,0-.22-1,1.49,1.49,0,0,0-.83-.45v-.44h6v.44c-.57.19-.86.47-.86.86a1.91,1.91,0,0,0,.63,1.17L123,99.92V87.19a1.62,1.62,0,0,0-.21-1,1.49,1.49,0,0,0-.83-.45v-.44h4v.44a1.49,1.49,0,0,0-.84.45,1.62,1.62,0,0,0-.21,1v14.63a1.66,1.66,0,0,0,.21,1,1.42,1.42,0,0,0,.84.45v.44h-4.8v-.44c.57-.14.85-.37.85-.67s-.26-.64-.78-1.23Z"/><path class="cls-1" d="M149.57,87.06l-2.25,3.6-.38-.23a3.63,3.63,0,0,0,.17-.77q0-.42-1.56-1.32a10.66,10.66,0,0,0-5.34-1.43,8.45,8.45,0,0,0-5.76,2,7.21,7.21,0,0,0-2.55,5.71,7,7,0,0,0,2.34,5.43,8.65,8.65,0,0,0,6.09,2.12,11.37,11.37,0,0,0,3.61-.57,8.78,8.78,0,0,0,2.91-1.56V96.67h-4.12a1.68,1.68,0,0,0-1,.21,1.43,1.43,0,0,0-.44.83h-.44V93.84h.44a1.43,1.43,0,0,0,.44.83,1.68,1.68,0,0,0,1,.21H150v.45a1.38,1.38,0,0,0-.84.43,1.68,1.68,0,0,0-.21,1v1.9a1.68,1.68,0,0,0,.21,1,1.43,1.43,0,0,0,.84.44v.37a14.7,14.7,0,0,1-9.9,3.65,10.92,10.92,0,0,1-7.29-2.39,9.1,9.1,0,0,1-2.38-3.11,9.09,9.09,0,0,1,.93-9.55,9.72,9.72,0,0,1,4.43-3.23,12.63,12.63,0,0,1,4.42-.76,13.12,13.12,0,0,1,3.71.49,21.05,21.05,0,0,1,4,1.75,1.48,1.48,0,0,0,.54.19c.14,0,.39-.21.77-.65Z"/><path class="cls-1" d="M41.34,60.72,69.89,0h9.17l28.55,60.72H97.68L74.47,11.36,51.27,60.72Z"/><path class="cls-1" d="M3.26,120.54a.37.37,0,0,1,0-.29l.11-.2a.37.37,0,0,1,.23-.17.39.39,0,0,1,.28,0,.33.33,0,0,1,.17.26l4.56,3.11a.36.36,0,0,1,.16.32.34.34,0,0,1-.19.31L4.2,126.58a.43.43,0,0,1-.18.24.37.37,0,0,1-.29,0,.32.32,0,0,1-.22-.17l-.11-.2a.31.31,0,0,1,0-.28.36.36,0,0,1,.18-.22.33.33,0,0,1,.27,0l3.93-2.36L3.69,120.8a.27.27,0,0,1-.26,0A.3.3,0,0,1,3.26,120.54Z"/><path class="cls-1" d="M11.12,120.54a.37.37,0,0,1,0-.29l.11-.2a.4.4,0,0,1,.23-.17.38.38,0,0,1,.28,0,.32.32,0,0,1,.18.26l4.55,3.11a.34.34,0,0,1,.16.32.33.33,0,0,1-.18.31l-4.42,2.66a.43.43,0,0,1-.18.24.35.35,0,0,1-.28,0,.3.3,0,0,1-.22-.17l-.12-.2a.35.35,0,0,1,0-.28.36.36,0,0,1,.18-.22.33.33,0,0,1,.27,0l3.93-2.36-4-2.77a.28.28,0,0,1-.26,0A.32.32,0,0,1,11.12,120.54Z"/><path class="cls-1" d="M25,120.64a.61.61,0,0,1,.62-.62h.22a.6.6,0,0,1,.44.17.61.61,0,0,1,.18.45v10.29a.59.59,0,0,1,.11.36.64.64,0,0,1-.17.45.6.6,0,0,1-.44.18h-.23a.6.6,0,0,1-.44-.18.61.61,0,0,1-.18-.45.6.6,0,0,1,.12-.36v-9.81A.62.62,0,0,1,25,120.64Z"/><path class="cls-1" d="M29.11,120.64a.61.61,0,0,1,.18-.45.57.57,0,0,1,.44-.18H30a.6.6,0,0,1,.44.18.61.61,0,0,1,.18.45V123a.72.72,0,0,1,.11.37.59.59,0,0,1-.18.44.6.6,0,0,1-.44.19h-.22a.6.6,0,0,1-.44-.19.59.59,0,0,1-.18-.44.66.66,0,0,1,.11-.36v-1.85A.57.57,0,0,1,29.11,120.64Z"/><path class="cls-1" d="M33,120.64a.61.61,0,0,1,.18-.45.6.6,0,0,1,.44-.18h.23a.6.6,0,0,1,.44.18.64.64,0,0,1,.17.45V123a.64.64,0,0,1,.11.37.58.58,0,0,1-.17.44.61.61,0,0,1-.44.19h-.23a.61.61,0,0,1-.44-.19.62.62,0,0,1-.17-.44.59.59,0,0,1,.11-.36v-1.85A.58.58,0,0,1,33,120.64Z"/><path class="cls-1" d="M36.61,127v-.22a.61.61,0,0,1,.18-.45.59.59,0,0,1,.44-.18.57.57,0,0,1,.46.21l1.71-.06v-4.62a.37.37,0,0,0-.11-.28.42.42,0,0,0-.33-.12,1.67,1.67,0,0,0-1,.25.61.61,0,0,1-.21.37.57.57,0,0,1-.4.15.6.6,0,0,1-.44-.18.59.59,0,0,1-.18-.44v-.23a.62.62,0,0,1,.23-.49,3,3,0,0,1,2-.68,1.73,1.73,0,0,1,1.23.42,1.63,1.63,0,0,1,.45,1.23v4.78a1,1,0,0,1-.32.79,1.27,1.27,0,0,1-.79.31l-2.28.07a.6.6,0,0,1-.46-.17A.62.62,0,0,1,36.61,127Z"/><path class="cls-1" d="M42.69,121.8v-.18a.62.62,0,0,1,.33-.56,8.23,8.23,0,0,1,3.9-1.11,2.35,2.35,0,0,1,1.71.58,2.2,2.2,0,0,1,.61,1.69V126h0a.58.58,0,0,1,.38-.13.6.6,0,0,1,.44.18.62.62,0,0,1,.17.44v.23a.62.62,0,0,1-.17.44.64.64,0,0,1-.77.09l-5.56.34a.58.58,0,0,1-.38.14.59.59,0,0,1-.44-.18.6.6,0,0,1-.18-.44v-.23a.61.61,0,0,1,.18-.45.59.59,0,0,1,.44-.18.51.51,0,0,1,.32.1l4.3-.26v-3.91a1.06,1.06,0,0,0-.22-.8,1.24,1.24,0,0,0-.86-.22,6.51,6.51,0,0,0-3,.82.63.63,0,0,1-1,.23A.61.61,0,0,1,42.69,121.8Z"/><path class="cls-1" d="M58.09,118a.6.6,0,0,1,.18-.44.57.57,0,0,1,.44-.18h.22a.62.62,0,0,1,.5,1v1.87a20.78,20.78,0,0,1,3-.17,2.5,2.5,0,0,1,2.75,2.71q0,2.3-3.4,4.53a.75.75,0,0,1-.23.27.54.54,0,0,1-.46.09.61.61,0,0,1-.4-.26l-.12-.19a.64.64,0,0,1-.09-.47.6.6,0,0,1,.64-.51,8.7,8.7,0,0,0,2.17-1.86,2.77,2.77,0,0,0,.66-1.6,1.29,1.29,0,0,0-1.52-1.46,15.08,15.08,0,0,0-3.49.3.59.59,0,0,1-.53-.13.58.58,0,0,1-.24-.48v-2.64A.66.66,0,0,1,58.09,118Z"/><path class="cls-1" d="M67.27,120.64a.61.61,0,0,1,.18-.45.6.6,0,0,1,.44-.18h.22a.57.57,0,0,1,.44.18.61.61,0,0,1,.18.45V123a.64.64,0,0,1,.11.37.62.62,0,0,1-.17.44.61.61,0,0,1-.44.19H68a.61.61,0,0,1-.44-.19.59.59,0,0,1-.18-.44.6.6,0,0,1,.12-.36v-1.85A.58.58,0,0,1,67.27,120.64Z"/><path class="cls-1" d="M70.9,121.8v-.18a.63.63,0,0,1,.32-.56,8.23,8.23,0,0,1,3.9-1.11,2.37,2.37,0,0,1,1.72.58,2.23,2.23,0,0,1,.6,1.69V126h0a.62.62,0,0,1,1,.49v.23a.61.61,0,0,1-.62.62.57.57,0,0,1-.32-.09l-5.57.34a.54.54,0,0,1-.38.14.61.61,0,0,1-.62-.62v-.23a.61.61,0,0,1,.18-.45.6.6,0,0,1,.44-.18.54.54,0,0,1,.33.1l4.3-.26v-3.91a1.11,1.11,0,0,0-.22-.8,1.25,1.25,0,0,0-.87-.22,6.54,6.54,0,0,0-3,.82.58.58,0,0,1-.22.29.6.6,0,0,1-.36.12.57.57,0,0,1-.44-.18A.61.61,0,0,1,70.9,121.8Z"/><path class="cls-1" d="M80.78,120.64a.61.61,0,0,1,.18-.45.57.57,0,0,1,.43-.18h.23a.6.6,0,0,1,.44.18.64.64,0,0,1,.17.45v5.9a.55.55,0,0,1,.11.36.6.6,0,0,1-.61.63H81.5a.6.6,0,0,1-.44-.18.64.64,0,0,1-.17-.45.51.51,0,0,1,.11-.35v-5.44A.57.57,0,0,1,80.78,120.64Z"/><path class="cls-1" d="M84.77,121.67v-.19a.57.57,0,0,1,.37-.56,9.23,9.23,0,0,1,4-1c1.81,0,2.72.84,2.72,2.52v4.08a.57.57,0,0,1,.1.36.64.64,0,0,1-.17.44.6.6,0,0,1-.44.18h-.22a.59.59,0,0,1-.44-.18.6.6,0,0,1-.18-.44.61.61,0,0,1,.11-.36v-4.08a1.25,1.25,0,0,0-.33-1,1.86,1.86,0,0,0-1.15-.28,8,8,0,0,0-3.2.7.57.57,0,0,1-.22.29.62.62,0,0,1-1-.52Zm.35,5.24a.61.61,0,0,1,.11-.36v-1.76a.7.7,0,0,1-.11-.37.61.61,0,0,1,.62-.62H86a.57.57,0,0,1,.44.18.6.6,0,0,1,.18.44.67.67,0,0,1-.11.37v1.76a.57.57,0,0,1,.11.36.6.6,0,0,1-.18.44.57.57,0,0,1-.44.18h-.22a.61.61,0,0,1-.62-.62Z"/><path class="cls-1" d="M94.05,118a.64.64,0,0,1,.17-.44.6.6,0,0,1,.44-.18h.23a.6.6,0,0,1,.44.18.6.6,0,0,1,.17.44.59.59,0,0,1-.11.36v1.87a20.78,20.78,0,0,1,3-.17,2.69,2.69,0,0,1,2,.73,2.73,2.73,0,0,1,.71,2c0,1.53-1.14,3-3.4,4.53a.75.75,0,0,1-.23.27.54.54,0,0,1-.46.09.61.61,0,0,1-.4-.26l-.12-.19a.56.56,0,0,1-.09-.47.6.6,0,0,1,.64-.51,8.7,8.7,0,0,0,2.17-1.86,2.77,2.77,0,0,0,.66-1.6,1.29,1.29,0,0,0-1.52-1.46,15.08,15.08,0,0,0-3.49.3.61.61,0,0,1-.54-.13.6.6,0,0,1-.23-.48v-2.64A.59.59,0,0,1,94.05,118Z"/><path class="cls-1" d="M109,118a.61.61,0,0,1,.62-.62h.22a.57.57,0,0,1,.44.18.6.6,0,0,1,.18.44.59.59,0,0,1-.11.36v1.87a20.62,20.62,0,0,1,3-.17,2.5,2.5,0,0,1,2.76,2.71q0,2.3-3.41,4.53a.64.64,0,0,1-.22.27.54.54,0,0,1-.46.09.58.58,0,0,1-.4-.26l-.13-.19a.59.59,0,0,1-.08-.47.61.61,0,0,1,.25-.41.67.67,0,0,1,.39-.1,8.88,8.88,0,0,0,2.17-1.86,2.77,2.77,0,0,0,.66-1.6,1.55,1.55,0,0,0-.35-1.09,1.58,1.58,0,0,0-1.18-.37,15.14,15.14,0,0,0-3.49.3.6.6,0,0,1-.53-.13.58.58,0,0,1-.24-.48v-2.64A.66.66,0,0,1,109,118Z"/><path class="cls-1" d="M117.93,121.33v-.23a.59.59,0,0,1,.11-.36.57.57,0,0,1,.3-.22,8,8,0,0,1,1.84-.43,22,22,0,0,1,2.3-.11,2.7,2.7,0,0,1,2,.74,2.81,2.81,0,0,1,.71,2,4.87,4.87,0,0,1-.67,2.31,7.36,7.36,0,0,1-1.89,2.16.55.55,0,0,1-.16.27.59.59,0,0,1-.44.16.67.67,0,0,1-.44-.2l-.15-.16a.62.62,0,0,1-.15-.45.64.64,0,0,1,.19-.44.57.57,0,0,1,.4-.16,6.23,6.23,0,0,0,1.54-1.78,3.67,3.67,0,0,0,.53-1.71,1.57,1.57,0,0,0-.35-1.11,1.53,1.53,0,0,0-1.16-.38,13,13,0,0,0-3.36.35.58.58,0,0,1-.57.38.57.57,0,0,1-.44-.18A.61.61,0,0,1,117.93,121.33Zm.74,10a.66.66,0,0,1,.11-.36v-7.25a.66.66,0,0,1-.11-.35.61.61,0,0,1,.18-.45.59.59,0,0,1,.44-.18h.22a.59.59,0,0,1,.44.18.61.61,0,0,1,.18.45.66.66,0,0,1-.11.35v7.25a.66.66,0,0,1,.11.36.61.61,0,0,1-.18.45.59.59,0,0,1-.44.18h-.22a.59.59,0,0,1-.44-.18A.61.61,0,0,1,118.67,131.29Z"/><path class="cls-1" d="M133.3,123.14a.32.32,0,0,1,.19-.32l4.42-2.66a.43.43,0,0,1,.18-.24.37.37,0,0,1,.51.13l.11.2a.37.37,0,0,1,0,.29.3.3,0,0,1-.17.22.31.31,0,0,1-.28,0l-3.92,2.36,4,2.77a.36.36,0,0,1,.25,0,.32.32,0,0,1,.17.22.34.34,0,0,1,0,.28l-.11.2a.31.31,0,0,1-.23.17.34.34,0,0,1-.28,0,.3.3,0,0,1-.17-.25l-4.56-3.11A.38.38,0,0,1,133.3,123.14Z"/><path class="cls-1" d="M141.17,123.14a.33.33,0,0,1,.18-.32l4.42-2.66a.41.41,0,0,1,.19-.24.37.37,0,0,1,.5.13l.12.2a.48.48,0,0,1,0,.29.35.35,0,0,1-.17.22.33.33,0,0,1-.29,0l-3.92,2.36,4.05,2.77a.38.38,0,0,1,.26,0,.38.38,0,0,1,.17.22.39.39,0,0,1,0,.28l-.11.2a.32.32,0,0,1-.22.17.34.34,0,0,1-.28,0,.34.34,0,0,1-.18-.25l-4.55-3.11A.35.35,0,0,1,141.17,123.14Z"/><path class="cls-1" d="M.36,135.12a.32.32,0,0,1,.18-.21,10.43,10.43,0,0,1,4.89-1.11,2,2,0,0,1,1.51.5,2.16,2.16,0,0,1,.45,1.49v4.26a.35.35,0,0,1,.11.55.39.39,0,0,1-.24.12L3,140.94H2.78a1.66,1.66,0,0,1-1.3-.47,2.11,2.11,0,0,1-.42-1.43v-3.62l-.2.11a.36.36,0,0,1-.27,0,.33.33,0,0,1-.21-.17A.36.36,0,0,1,.36,135.12Zm1.4,3.93A1.49,1.49,0,0,0,2,140a1,1,0,0,0,.79.27H3l3.7-.2v-4.25a1.44,1.44,0,0,0-.26-1,1.27,1.27,0,0,0-1-.3,10.27,10.27,0,0,0-3.67.62Z"/><path class="cls-1" d="M8.75,134.22a.33.33,0,0,1,.1-.25.32.32,0,0,1,.25-.1h.21a.33.33,0,0,1,.25.1.37.37,0,0,1,.1.25v2.46a.3.3,0,0,1,.1.25.33.33,0,0,1-.1.25.32.32,0,0,1-.25.1H9.2a.34.34,0,0,1-.35-.35.32.32,0,0,1,.1-.25v-2.13A.33.33,0,0,1,8.75,134.22Z"/><path class="cls-1" d="M10.82,131.71a.33.33,0,0,1,.1-.25.32.32,0,0,1,.25-.1h.21a.33.33,0,0,1,.25.1.37.37,0,0,1,.1.25.3.3,0,0,1-.11.24v2.15a18.2,18.2,0,0,1,3.39-.23,2.56,2.56,0,0,1,1.89.65,2.47,2.47,0,0,1,.65,1.8q0,2.2-3.44,4.4a.32.32,0,0,1-.14.21.33.33,0,0,1-.27,0,.39.39,0,0,1-.23-.14l-.12-.18a.36.36,0,0,1,.38-.54q3.12-2,3.12-3.8c0-1.17-.62-1.75-1.84-1.75a16.85,16.85,0,0,0-3.66.3.35.35,0,0,1-.3-.05.36.36,0,0,1-.13-.29V132A.3.3,0,0,1,10.82,131.71Z"/><path class="cls-1" d="M18.49,134.22a.33.33,0,0,1,.1-.25.32.32,0,0,1,.25-.1h.21a.33.33,0,0,1,.25.1.37.37,0,0,1,.1.25v2.46a.3.3,0,0,1,.1.25.33.33,0,0,1-.1.25.32.32,0,0,1-.25.1h-.21a.34.34,0,0,1-.35-.35.32.32,0,0,1,.1-.25v-2.13A.32.32,0,0,1,18.49,134.22Z"/><path class="cls-1" d="M20.56,135.41v-.21a.3.3,0,0,1,.18-.3,10.41,10.41,0,0,1,1.14-.54,10.1,10.1,0,0,1,1.23-.38,5.69,5.69,0,0,1,1.49-.18q2.1,0,2.1,2V140l.44,0a.36.36,0,0,1,.27-.11.33.33,0,0,1,.25.1.37.37,0,0,1,.1.25v.21a.37.37,0,0,1-.1.25.33.33,0,0,1-.25.1.32.32,0,0,1-.24-.09l-5.92.36a.38.38,0,0,1-.28.12.37.37,0,0,1-.25-.1.4.4,0,0,1-.1-.26v-.2a.4.4,0,0,1,.1-.26.37.37,0,0,1,.25-.1.3.3,0,0,1,.24.1L26,140v-4.19a1.35,1.35,0,0,0-.32-1,1.5,1.5,0,0,0-1.08-.31,5.47,5.47,0,0,0-1.33.15,9.42,9.42,0,0,0-2,.75.32.32,0,0,1-.1.25.31.31,0,0,1-.24.1.34.34,0,0,1-.35-.35Z"/><path class="cls-1" d="M29.05,134.22a.33.33,0,0,1,.1-.25.32.32,0,0,1,.25-.1h.21a.34.34,0,0,1,.35.35v6.08a.3.3,0,0,1,.11.24.4.4,0,0,1-.1.26.33.33,0,0,1-.25.1H29.5a.33.33,0,0,1-.25-.1.4.4,0,0,1-.1-.26.3.3,0,0,1,.11-.24v-5.75A.34.34,0,0,1,29.05,134.22Z"/><path class="cls-1" d="M31.59,134.22a.32.32,0,0,1,.1-.25.33.33,0,0,1,.25-.1h.21a.34.34,0,0,1,.35.35v1.1a4.36,4.36,0,0,1,1.62-1.13,5.14,5.14,0,0,1,2-.39,2.86,2.86,0,0,1,1.11.2,2,2,0,0,1,.76.51,2.5,2.5,0,0,1,.44.77,4,4,0,0,1,.23.92,7.78,7.78,0,0,1,.06,1A3.74,3.74,0,0,1,37.67,140a3.27,3.27,0,0,1-2.29.92,4.1,4.1,0,0,1-.94-.12.34.34,0,0,1-.26-.35v-.21a.33.33,0,0,1,.1-.25.37.37,0,0,1,.25-.1.35.35,0,0,1,.34.28,2.7,2.7,0,0,0,.51.05,2.52,2.52,0,0,0,1.8-.74,3,3,0,0,0,.85-2.29,7.2,7.2,0,0,0,0-.86,3.16,3.16,0,0,0-.16-.74,1.94,1.94,0,0,0-.33-.59,1.5,1.5,0,0,0-.55-.38,2.23,2.23,0,0,0-.82-.14,4.47,4.47,0,0,0-2,.42,3.63,3.63,0,0,0-1.44,1.22.39.39,0,0,1-.23.15v4a.29.29,0,0,1,.11.24.34.34,0,0,1-.36.35h-.2a.34.34,0,0,1-.36-.35.29.29,0,0,1,.11-.24v-5.75A.34.34,0,0,1,31.59,134.22Z"/><path class="cls-1" d="M44.37,135.12a.33.33,0,0,1,.17-.21,10.5,10.5,0,0,1,4.9-1.11,2,2,0,0,1,1.51.5,2.16,2.16,0,0,1,.45,1.49v4.26a.34.34,0,0,1,.19.3.29.29,0,0,1-.09.25.35.35,0,0,1-.24.12l-4.22.22h-.25a1.69,1.69,0,0,1-1.31-.47,2.16,2.16,0,0,1-.41-1.43v-3.62l-.2.11a.36.36,0,0,1-.27,0,.3.3,0,0,1-.21-.17A.36.36,0,0,1,44.37,135.12Zm1.4,3.93A1.49,1.49,0,0,0,46,140a1,1,0,0,0,.79.27H47l3.7-.2v-4.25a1.49,1.49,0,0,0-.26-1,1.3,1.3,0,0,0-1-.3,10.27,10.27,0,0,0-3.67.62Z"/><path class="cls-1" d="M52.75,134.22a.37.37,0,0,1,.1-.25.33.33,0,0,1,.25-.1h.22a.3.3,0,0,1,.24.1.33.33,0,0,1,.1.25v2.46a.31.31,0,0,1,.11.25.34.34,0,0,1-.35.35h-.21a.33.33,0,0,1-.25-.1.34.34,0,0,1-.11-.25.33.33,0,0,1,.11-.25v-2.13A.33.33,0,0,1,52.75,134.22Z"/><path class="cls-1" d="M54.82,140.63v-.22a.34.34,0,0,1,.35-.34.32.32,0,0,1,.32.19l2-.06a.26.26,0,0,0,.14,0,.14.14,0,0,0,0-.1v-4.86a.85.85,0,0,0-.12-.48l-.05-.07a1,1,0,0,0-.57-.13,2.1,2.1,0,0,0-1.25.38v0a.33.33,0,0,1-.1.25.37.37,0,0,1-.25.09.35.35,0,0,1-.25-.09A.33.33,0,0,1,55,135v-.22a.3.3,0,0,1,.13-.27,2.84,2.84,0,0,1,1.82-.63,1.58,1.58,0,0,1,1,.29l.18.19a1.48,1.48,0,0,1,.25.9v4.86a.75.75,0,0,1-.24.6.93.93,0,0,1-.62.24l-2.33.07a.34.34,0,0,1-.26-.1A.33.33,0,0,1,54.82,140.63Z"/><path class="cls-1" d="M59.56,134.22a.33.33,0,0,1,.1-.25.32.32,0,0,1,.25-.1h.21a.33.33,0,0,1,.25.1.37.37,0,0,1,.1.25v2.46a.3.3,0,0,1,.1.25.33.33,0,0,1-.1.25.32.32,0,0,1-.25.1H60a.34.34,0,0,1-.35-.35.32.32,0,0,1,.1-.25v-2.13A.33.33,0,0,1,59.56,134.22Z"/><path class="cls-1" d="M61.75,134.22a.33.33,0,0,1,.1-.25.3.3,0,0,1,.24-.1h.22a.33.33,0,0,1,.25.1.37.37,0,0,1,.1.25v2.46a.3.3,0,0,1,.1.25.33.33,0,0,1-.1.25.32.32,0,0,1-.25.1H62.2a.34.34,0,0,1-.35-.35.32.32,0,0,1,.1-.25v-2.13A.32.32,0,0,1,61.75,134.22Z"/><path class="cls-1" d="M63.82,140.63v-.22a.3.3,0,0,1,.1-.24.31.31,0,0,1,.24-.1.32.32,0,0,1,.32.19l2-.06a.26.26,0,0,0,.14,0,.14.14,0,0,0,0-.1v-4.86a.85.85,0,0,0-.12-.48l0-.07a1,1,0,0,0-.56-.13,2.14,2.14,0,0,0-1.26.38v0a.33.33,0,0,1-.1.25.37.37,0,0,1-.25.09.35.35,0,0,1-.25-.09A.33.33,0,0,1,64,135v-.22a.3.3,0,0,1,.13-.27,2.86,2.86,0,0,1,1.83-.63,1.55,1.55,0,0,1,1,.29s.12.11.19.19a1.55,1.55,0,0,1,.25.9v4.86a.76.76,0,0,1-.25.6.93.93,0,0,1-.62.24l-2.33.07a.34.34,0,0,1-.26-.1A.32.32,0,0,1,63.82,140.63Z"/><path class="cls-1" d="M68.43,135.41v-.21a.3.3,0,0,1,.19-.3,10.31,10.31,0,0,1,1.13-.54A10.1,10.1,0,0,1,71,134a5.69,5.69,0,0,1,1.49-.18c1.4,0,2.11.67,2.11,2V140l.43,0a.36.36,0,0,1,.27-.11.34.34,0,0,1,.35.35v.21a.34.34,0,0,1-.35.35.36.36,0,0,1-.24-.09l-5.92.36a.37.37,0,0,1-.27.12.34.34,0,0,1-.35-.36v-.2a.34.34,0,0,1,.35-.36.29.29,0,0,1,.23.1l4.79-.3v-4.19a1.35,1.35,0,0,0-.31-1,1.53,1.53,0,0,0-1.09-.31,5.32,5.32,0,0,0-1.32.15,9.22,9.22,0,0,0-2,.75.36.36,0,0,1-.1.25.36.36,0,0,1-.5,0A.32.32,0,0,1,68.43,135.41Z"/><path class="cls-1" d="M76.45,131.71a.37.37,0,0,1,.1-.25.33.33,0,0,1,.25-.1H77a.32.32,0,0,1,.25.1.33.33,0,0,1,.1.25.3.3,0,0,1-.1.24v2.15a18.15,18.15,0,0,1,3.38-.23,2.59,2.59,0,0,1,1.9.65,2.47,2.47,0,0,1,.65,1.8q0,2.2-3.44,4.4a.34.34,0,0,1-.15.21.32.32,0,0,1-.27,0,.37.37,0,0,1-.22-.14l-.12-.18a.36.36,0,0,1,.38-.54c2.08-1.32,3.11-2.59,3.11-3.8s-.61-1.75-1.84-1.75a16.81,16.81,0,0,0-3.65.3.37.37,0,0,1-.31-.05.38.38,0,0,1-.12-.29V132A.3.3,0,0,1,76.45,131.71Z"/><path class="cls-1" d="M88.69,131.71a.33.33,0,0,1,.1-.25.32.32,0,0,1,.25-.1h.21a.33.33,0,0,1,.25.1.37.37,0,0,1,.1.25.3.3,0,0,1-.11.24v2.15a18.2,18.2,0,0,1,3.39-.23,2.56,2.56,0,0,1,1.89.65,2.43,2.43,0,0,1,.65,1.8q0,2.2-3.44,4.4a.32.32,0,0,1-.14.21.33.33,0,0,1-.27,0,.39.39,0,0,1-.23-.14l-.12-.18a.38.38,0,0,1,.1-.49.38.38,0,0,1,.29,0q3.11-2,3.11-3.8c0-1.17-.62-1.75-1.84-1.75a16.85,16.85,0,0,0-3.66.3.35.35,0,0,1-.3-.05.39.39,0,0,1-.13-.29V132A.3.3,0,0,1,88.69,131.71Z"/><path class="cls-1" d="M96.71,134.22a.33.33,0,0,1,.1-.25.31.31,0,0,1,.24-.1h.22a.33.33,0,0,1,.25.1.37.37,0,0,1,.1.25v6.08a.3.3,0,0,1,.1.24.35.35,0,0,1-.1.26.32.32,0,0,1-.25.1h-.21a.33.33,0,0,1-.25-.1.35.35,0,0,1-.1-.26.3.3,0,0,1,.11-.24v-5.75A.34.34,0,0,1,96.71,134.22Z"/><path class="cls-1" d="M99.13,135.28v-.21a.33.33,0,0,1,.19-.32,10.17,10.17,0,0,1,2.52-.81l.32-.06.27,0,.29,0,.25,0h.59a2.24,2.24,0,0,1,1.69.57,2.33,2.33,0,0,1,.59,1.7v4.23a.29.29,0,0,1,.11.24.36.36,0,0,1-.1.25.33.33,0,0,1-.25.1h-.22a.33.33,0,0,1-.34-.35.3.3,0,0,1,.09-.24v-4.23a1.35,1.35,0,0,0-1.57-1.56,8,8,0,0,0-1.57.11,10.46,10.46,0,0,0-2.16.67.44.44,0,0,1-.11.25.36.36,0,0,1-.24.09.33.33,0,0,1-.25-.1A.32.32,0,0,1,99.13,135.28Zm.36,5.26a.29.29,0,0,1,.11-.24v-2a.3.3,0,0,1-.11-.24.36.36,0,0,1,.1-.25.34.34,0,0,1,.25-.11h.21a.33.33,0,0,1,.25.11.32.32,0,0,1,.1.25.3.3,0,0,1-.1.24v2a.28.28,0,0,1,.1.24.34.34,0,0,1-.35.35h-.21a.33.33,0,0,1-.25-.1A.36.36,0,0,1,99.49,140.54Z"/><path class="cls-1" d="M107.12,134.22a.33.33,0,0,1,.1-.25.32.32,0,0,1,.25-.1h.21a.34.34,0,0,1,.35.35v2.46a.3.3,0,0,1,.1.25.37.37,0,0,1-.09.25.35.35,0,0,1-.25.1h-.22a.34.34,0,0,1-.35-.35.32.32,0,0,1,.1-.25v-2.13A.33.33,0,0,1,107.12,134.22Z"/><path class="cls-1" d="M109.19,140.63v-.22a.3.3,0,0,1,.1-.24.32.32,0,0,1,.25-.1.33.33,0,0,1,.32.19l2-.06a.23.23,0,0,0,.13,0,.11.11,0,0,0,.05-.1v-4.86a1,1,0,0,0-.11-.48l-.06-.07a1,1,0,0,0-.56-.13,2.16,2.16,0,0,0-1.26.38v0a.33.33,0,0,1-.1.25.39.39,0,0,1-.5,0,.33.33,0,0,1-.1-.25v-.22a.3.3,0,0,1,.13-.27,2.86,2.86,0,0,1,1.83-.63,1.55,1.55,0,0,1,1,.29,1.69,1.69,0,0,1,.19.19,1.48,1.48,0,0,1,.25.9v4.86a.73.73,0,0,1-.25.6.93.93,0,0,1-.62.24l-2.33.07a.35.35,0,0,1-.26-.1A.32.32,0,0,1,109.19,140.63Z"/><path class="cls-1" d="M118.48,134.87v-.21a.32.32,0,0,1,.23-.33,12.9,12.9,0,0,1,4.15-.53,2.53,2.53,0,0,1,1.89.66,2.47,2.47,0,0,1,.64,1.81,4.59,4.59,0,0,1-.68,2.26,7.26,7.26,0,0,1-1.9,2.15.37.37,0,0,1-.12.2.35.35,0,0,1-.25.1.39.39,0,0,1-.25-.12l-.13-.15a.35.35,0,0,1-.1-.25.39.39,0,0,1,.12-.25.41.41,0,0,1,.3-.09,6.8,6.8,0,0,0,1.28-1.29,5.72,5.72,0,0,0,.79-1.36,3.46,3.46,0,0,0,.24-1.2c0-1.17-.61-1.76-1.83-1.76a13,13,0,0,0-3.68.41.32.32,0,0,1-.12.22.32.32,0,0,1-.23.09.34.34,0,0,1-.25-.11A.37.37,0,0,1,118.48,134.87Zm.77,9.77a.3.3,0,0,1,.1-.24v-7.23a.3.3,0,0,1-.1-.25.37.37,0,0,1,.09-.25.37.37,0,0,1,.25-.1h.22a.34.34,0,0,1,.35.35.31.31,0,0,1-.1.25v7.23a.3.3,0,0,1,.1.24.36.36,0,0,1-.1.25.34.34,0,0,1-.25.11h-.22a.34.34,0,0,1-.25-.11A.35.35,0,0,1,119.25,144.64Z"/><path class="cls-1" d="M126.33,134.22a.36.36,0,0,1,.1-.25.33.33,0,0,1,.25-.1h.22a.3.3,0,0,1,.24.1.33.33,0,0,1,.11.25.35.35,0,0,1-.09.23l.31,4a2.3,2.3,0,0,0,.47,1.36,1.36,1.36,0,0,0,1.08.47,6,6,0,0,0,1.72-.18,3.9,3.9,0,0,0,1.25-.78,3.5,3.5,0,0,0,1-1.69,12.48,12.48,0,0,0,.45-3.14.4.4,0,0,1-.09-.24.34.34,0,0,1,.35-.35H134a.33.33,0,0,1,.25.1.36.36,0,0,1,.1.25.3.3,0,0,1-.12.25,13.71,13.71,0,0,1-.5,3.39,4.26,4.26,0,0,1-1.22,2,4.38,4.38,0,0,1-1.5.88A6.34,6.34,0,0,1,129,141a2,2,0,0,1-1.57-.68,3,3,0,0,1-.68-1.8l-.31-4A.35.35,0,0,1,126.33,134.22Zm1.46,3.78a.36.36,0,0,1-.1-.25.34.34,0,0,1,.35-.35,3.22,3.22,0,0,0,.83-.07,1.69,1.69,0,0,0,.55-.36,2,2,0,0,0,.45-.9,6.94,6.94,0,0,0,.24-1.61.36.36,0,0,1-.1-.24.36.36,0,0,1,.1-.25.33.33,0,0,1,.25-.1h.21a.34.34,0,0,1,.35.35.3.3,0,0,1-.12.25,4.27,4.27,0,0,1-.92,3,2.3,2.3,0,0,1-.8.47,3.77,3.77,0,0,1-1,.13A.34.34,0,0,1,127.79,138Z"/><path class="cls-1" d="M135.46,134.22a.33.33,0,0,1,.11-.25.32.32,0,0,1,.25-.1H136a.33.33,0,0,1,.25.1.32.32,0,0,1,.1.25v1.1a4.32,4.32,0,0,1,1.61-1.13,5.23,5.23,0,0,1,2-.39,2.93,2.93,0,0,1,1.11.2,2,2,0,0,1,.75.51,2.34,2.34,0,0,1,.45.77,4.59,4.59,0,0,1,.23.92,7.78,7.78,0,0,1,.06,1,3.75,3.75,0,0,1-1.07,2.81,3.23,3.23,0,0,1-2.28.92,4.19,4.19,0,0,1-.95-.12.34.34,0,0,1-.25-.35v-.21a.33.33,0,0,1,.1-.25.36.36,0,0,1,.25-.1.37.37,0,0,1,.22.08.33.33,0,0,1,.11.2,2.87,2.87,0,0,0,.52.05,2.52,2.52,0,0,0,1.8-.74,3,3,0,0,0,.85-2.29,7.2,7.2,0,0,0,0-.86,3.18,3.18,0,0,0-.17-.74,1.6,1.6,0,0,0-.33-.59,1.46,1.46,0,0,0-.54-.38,2.27,2.27,0,0,0-.82-.14,4.55,4.55,0,0,0-2,.42,3.67,3.67,0,0,0-1.43,1.22.42.42,0,0,1-.23.15v4a.29.29,0,0,1,.11.24.33.33,0,0,1-.11.25.33.33,0,0,1-.25.1h-.21a.33.33,0,0,1-.25-.1.32.32,0,0,1-.1-.25.28.28,0,0,1,.1-.24v-5.75A.34.34,0,0,1,135.46,134.22Z"/><path class="cls-1" d="M143.66,134.22a.34.34,0,0,1,.36-.35h.21a.33.33,0,0,1,.25.1.36.36,0,0,1,.1.25v1.1a4.32,4.32,0,0,1,1.61-1.13,5.23,5.23,0,0,1,2-.39,2.93,2.93,0,0,1,1.11.2,2.07,2.07,0,0,1,.75.51,2.34,2.34,0,0,1,.45.77,4.59,4.59,0,0,1,.23.92,7.78,7.78,0,0,1,.06,1,3.75,3.75,0,0,1-1.07,2.81,3.23,3.23,0,0,1-2.28.92,4.19,4.19,0,0,1-1-.12.34.34,0,0,1-.25-.35v-.21a.34.34,0,0,1,.34-.35.38.38,0,0,1,.23.08.33.33,0,0,1,.11.2,2.87,2.87,0,0,0,.52.05,2.48,2.48,0,0,0,1.79-.74,3,3,0,0,0,.86-2.29,7.2,7.2,0,0,0,0-.86,3.18,3.18,0,0,0-.17-.74,1.6,1.6,0,0,0-.33-.59,1.42,1.42,0,0,0-.55-.38,2.18,2.18,0,0,0-.81-.14,4.52,4.52,0,0,0-2,.42,3.67,3.67,0,0,0-1.43,1.22.42.42,0,0,1-.23.15v4a.28.28,0,0,1,.1.24.32.32,0,0,1-.1.25.33.33,0,0,1-.25.1h-.21a.33.33,0,0,1-.25-.1.32.32,0,0,1-.1-.25.28.28,0,0,1,.1-.24v-5.75A.34.34,0,0,1,143.66,134.22Z"/><line class="cls-1" x1="149.7" y1="109.71" y2="109.71"/><rect class="cls-1" y="109.46" width="149.7" height="0.5"/></g></g></svg>