<svg xmlns="http://www.w3.org/2000/svg" viewBox="0 0 49.81 63.34"><defs><style>.cls-1{isolation:isolate;}.cls-2{fill:#fff;}</style></defs><g id="Layer_2" data-name="Layer 2"><g id="Layer_1-2" data-name="Layer 1"><g id="Layer_2-2" data-name="Layer 2"><g id="Layer_1-2-2" data-name="Layer 1-2"><g class="cls-1"><path class="cls-2" d="M0,36.76,19.1,0H29.17L48.28,36.76H36.65l-12.49-24-12.49,24Z"/></g><g class="cls-1"><path class="cls-2" d="M8,58.57H21.82a1.19,1.19,0,0,0,.78-.23,1.77,1.77,0,0,0,.43-.83h.53v5.83H23a1.73,1.73,0,0,0-.43-.82,1.14,1.14,0,0,0-.78-.23H2v-.53a1.73,1.73,0,0,0,.82-.43A1.14,1.14,0,0,0,3,60.55V41.47a1.14,1.14,0,0,0-.23-.78A1.65,1.65,0,0,0,2,40.26v-.53H9v.53a1.57,1.57,0,0,0-.83.42,1.16,1.16,0,0,0-.23.79Z"/><path class="cls-2" d="M46,50.47a5.31,5.31,0,0,1,3.8,5.32,5.83,5.83,0,0,1-2.21,4.84A7.09,7.09,0,0,1,45,61.9a14.67,14.67,0,0,1-3.67.39H25.92v-.53a1.73,1.73,0,0,0,.82-.43,1.14,1.14,0,0,0,.24-.78V41.47a1.14,1.14,0,0,0-.24-.78,1.65,1.65,0,0,0-.82-.43v-.53H41.19a15.24,15.24,0,0,1,3.53.33,6.12,6.12,0,0,1,2.35,1.13,5.4,5.4,0,0,1,2,4.52A4.92,4.92,0,0,1,46,50.47ZM31.9,48.71h8.64a4.8,4.8,0,0,0,2.74-.58,2.4,2.4,0,0,0,.88-2.05,2.36,2.36,0,0,0-.83-2,4.89,4.89,0,0,0-2.79-.6H31.9Zm0,9.86h8.36a6.6,6.6,0,0,0,3.36-.65,2.64,2.64,0,0,0,1.17-2.42,2.67,2.67,0,0,0-1.17-2.43,6.52,6.52,0,0,0-3.36-.65H31.9Z"/></g></g></g></g></g></svg>