<?xml version="1.0" encoding="utf-8"?>
<!-- Generator: Adobe Illustrator 24.2.3, SVG Export Plug-In . SVG Version: 6.00 Build 0)  -->
<svg version="1.1" id="Layer_1" xmlns="http://www.w3.org/2000/svg" xmlns:xlink="http://www.w3.org/1999/xlink" x="0px" y="0px"
	 viewBox="0 0 669 674.3" style="enable-background:new 0 0 669 674.3;" xml:space="preserve">
<style type="text/css">
	.st0{font-family:'CopperplateGothic-Light';}
	.st1{font-size:554.5568px;}
	.st2{stroke:url(#SVGID_1_);stroke-width:0.5;stroke-miterlimit:10;}
</style>
<g>
	<g>
		<path d="M145.3,379.1h44.2c1.8,0,3.1-0.3,3.9-0.8c0.8-0.6,1.3-1.7,1.8-3.3h1.7v15.3h-1.7c-0.4-1.6-1-2.7-1.8-3.3
			c-0.8-0.6-2-0.8-3.9-0.8h-57.6v-1.7c1.6-0.4,2.7-1,3.3-1.8s0.8-2,0.8-3.8V321c0-1.8-0.3-3.1-0.8-3.8c-0.6-0.7-1.7-1.3-3.3-1.7
			v-1.7h17.5v1.7c-1.6,0.4-2.7,1-3.3,1.7c-0.6,0.7-0.8,2-0.8,3.8V379.1z"/>
		<path d="M210.2,378.9V321c0-1.8-0.3-3.1-0.8-3.8c-0.6-0.7-1.7-1.3-3.3-1.7v-1.7h17.5v1.7c-1.6,0.4-2.7,1-3.3,1.7
			c-0.6,0.7-0.8,2-0.8,3.8v57.9c0,1.8,0.3,3,0.8,3.8c0.6,0.8,1.7,1.3,3.3,1.8v1.7h-17.5v-1.7c1.6-0.4,2.7-1,3.3-1.8
			S210.2,380.7,210.2,378.9z"/>
		<path d="M243.4,378.9V321c0-1.8-0.3-3-0.8-3.8c-0.5-0.8-1.7-1.3-3.3-1.8v-1.7h36.6c9.8,0,17.1,1.1,21.9,3.4
			c6,2.9,10.6,7.7,14,14.4c2.9,5.8,4.4,11.9,4.4,18.4c0,7.6-1.9,14.7-5.8,21c-3.4,5.6-7.6,9.5-12.8,11.8c-5.2,2.3-12.4,3.4-21.7,3.4
			h-36.6v-1.7c1.7-0.4,2.8-1,3.3-1.8C243.1,381.9,243.4,380.7,243.4,378.9z M252.6,379.1h22.7c8.6,0,14.9-1.2,18.8-3.5
			c4.4-2.5,7.7-6.6,9.8-12c1.6-4.1,2.4-8.7,2.4-13.7c0-8.8-2.3-15.9-6.8-21.2c-2.5-2.9-5.6-4.9-9.3-6.1s-8.7-1.8-15-1.8h-22.7V379.1
			z"/>
		<path d="M334.1,378.9V321c0-1.8-0.3-3.1-0.8-3.8c-0.6-0.7-1.7-1.3-3.3-1.7v-1.7h17.5v1.7c-1.6,0.4-2.7,1-3.3,1.7
			c-0.6,0.7-0.8,2-0.8,3.8v57.9c0,1.8,0.3,3,0.8,3.8c0.6,0.8,1.7,1.3,3.3,1.8v1.7h-17.5v-1.7c1.6-0.4,2.7-1,3.3-1.8
			S334.1,380.7,334.1,378.9z"/>
		<path d="M374.9,325v53.9c0,1.8,0.3,3,0.8,3.8c0.5,0.8,1.7,1.3,3.3,1.8v1.7h-16v-1.7c1.7-0.4,2.8-1,3.3-1.8c0.5-0.8,0.8-2,0.8-3.8
			V321c0-1.8-0.3-3.1-0.8-3.8c-0.6-0.7-1.7-1.3-3.3-1.7v-1.7h23.6v1.7c-2.2,0.7-3.4,1.9-3.4,3.4c0,1.3,0.8,2.8,2.5,4.7l42.8,47.9
			V321c0-1.8-0.3-3.1-0.8-3.8c-0.6-0.7-1.7-1.3-3.3-1.7v-1.7h16v1.7c-1.6,0.4-2.7,1-3.3,1.7c-0.6,0.7-0.8,2-0.8,3.8v57.9
			c0,1.8,0.3,3,0.8,3.8c0.5,0.8,1.7,1.3,3.3,1.8v1.7h-19v-1.7c2.2-0.6,3.4-1.4,3.4-2.7c0-0.9-1-2.5-3.1-4.9L374.9,325z"/>
		<path d="M533.7,320.5l-8.9,14.2l-1.5-0.9c0.4-1.5,0.6-2.5,0.6-3c0-1.1-2-2.9-6.1-5.2c-6.6-3.8-13.7-5.6-21.2-5.6
			c-9.1,0-16.7,2.6-22.8,7.9c-6.7,5.8-10.1,13.4-10.1,22.6c0,8.8,3.1,15.9,9.3,21.5c6.1,5.6,14.1,8.3,24.1,8.3c5,0,9.8-0.7,14.3-2.2
			c4.5-1.5,8.4-3.5,11.5-6.2v-13.3h-16.3c-1.8,0-3.1,0.3-3.9,0.8c-0.8,0.6-1.3,1.7-1.7,3.3h-1.7v-15.3h1.7c0.4,1.7,1,2.8,1.7,3.3
			c0.8,0.6,2,0.8,3.8,0.8h28.6v1.7c-1.7,0.4-2.8,1-3.3,1.7c-0.6,0.8-0.8,2-0.8,3.9v7.5c0,1.8,0.3,3.1,0.8,3.9
			c0.6,0.8,1.7,1.3,3.3,1.7v1.5c-11.2,9.6-24.3,14.4-39.1,14.4c-11.7,0-21.3-3.1-28.8-9.5c-4-3.4-7.2-7.5-9.4-12.3
			c-2.5-5.1-3.7-10.4-3.7-15.9c0-8.1,2.5-15.4,7.4-21.9c4.4-5.8,10.2-10,17.5-12.8c5.4-2,11.3-3,17.5-3c5.4,0,10.2,0.6,14.7,1.9
			c4.4,1.3,9.7,3.6,15.9,6.9c1,0.5,1.7,0.8,2.1,0.8c0.5,0,1.5-0.9,3-2.6L533.7,320.5z"/>
	</g>
	<g>
		<path d="M116.2,420c10.3,3.5,15.4,10.6,15.4,21.4c0,5.2-1.4,9.8-4.1,13.8c-2.7,3.9-6.4,6.7-11,8.3c-4.6,1.6-11.2,2.4-19.7,2.4
			H45.2v-2.1c1.6-0.4,2.7-1,3.3-1.7c0.6-0.7,0.8-2,0.8-3.8v-73.1c0-1.8-0.3-3.1-0.8-3.9c-0.6-0.8-1.7-1.3-3.3-1.7v-2.1h52.7
			c5.2,0,9.5,0.4,12.8,1.2c3.4,0.8,6.4,2.2,9,4.1c6,4.3,8.9,10.4,8.9,18.4C128.7,409.7,124.5,416,116.2,420z M59.5,415.7h34
			c4.8,0,8.4-0.2,10.8-0.5c2.4-0.3,4.6-0.9,6.6-1.7c2.5-1,4.4-2.6,5.8-4.8c1.4-2.2,2.1-4.7,2.1-7.5c0-3.8-1.2-7-3.7-9.7
			c-2-2.1-4.6-3.6-7.7-4.4c-3.2-0.8-8-1.2-14.6-1.2H59.5V415.7z M59.5,457.5H95c5.1,0,8.9-0.2,11.3-0.5c2.5-0.3,4.7-1,6.9-1.9
			c2.6-1.2,4.6-3,6.1-5.4c1.4-2.4,2.2-5.2,2.2-8.4c0-4.2-1.3-7.8-3.8-10.8c-2.1-2.5-4.8-4.1-8.1-5c-3.3-0.9-8.3-1.3-15.1-1.3H59.5
			V457.5z"/>
		<path d="M158.4,400.7v37.2c0,5.7,0.3,9.7,0.8,11.9c0.6,2.2,1.8,4,3.7,5.5c3.9,3.1,10.5,4.7,19.9,4.7c10.4,0,17.4-1.9,21.1-5.7
			c1.3-1.4,2.2-3.2,2.7-5.3c0.4-2.1,0.6-5.8,0.6-11v-37.2c0-1.8-0.3-3-0.8-3.8c-0.6-0.8-1.7-1.3-3.3-1.8v-1.7h16v1.7
			c-1.6,0.4-2.7,1-3.3,1.7c-0.6,0.7-0.8,2-0.8,3.8v39.1c0,6.6-0.6,11.3-1.7,14c-1.9,4.7-5.4,8.1-10.4,10.3c-5,2.2-12,3.3-20.8,3.3
			c-12.7,0-21.6-2.4-26.7-7.1c-2.5-2.2-4.1-4.8-5-7.6c-0.8-2.8-1.3-7.1-1.3-13v-39.1c0-1.8-0.3-3.1-0.8-3.8
			c-0.6-0.7-1.7-1.3-3.3-1.7v-1.7h17.5v1.7c-1.6,0.4-2.7,1-3.3,1.8C158.7,397.7,158.4,398.9,158.4,400.7z"/>
		<path d="M237.5,458.6v-57.9c0-1.8-0.3-3.1-0.8-3.8c-0.6-0.7-1.7-1.3-3.3-1.7v-1.7h17.5v1.7c-1.6,0.4-2.7,1-3.3,1.7
			c-0.6,0.7-0.8,2-0.8,3.8v57.9c0,1.8,0.3,3,0.8,3.8c0.6,0.8,1.7,1.3,3.3,1.8v1.7h-17.5v-1.7c1.6-0.4,2.7-1,3.3-1.8
			S237.5,460.3,237.5,458.6z"/>
		<path d="M279.9,458.8h44.2c1.8,0,3.1-0.3,3.9-0.8c0.8-0.6,1.3-1.7,1.8-3.3h1.7V470h-1.7c-0.4-1.6-1-2.7-1.8-3.3
			c-0.8-0.6-2-0.8-3.9-0.8h-57.6v-1.7c1.6-0.4,2.7-1,3.3-1.8s0.8-2,0.8-3.8v-57.9c0-1.8-0.3-3.1-0.8-3.8c-0.6-0.7-1.7-1.3-3.3-1.7
			v-1.7H284v1.7c-1.6,0.4-2.7,1-3.3,1.7c-0.6,0.7-0.8,2-0.8,3.8V458.8z"/>
		<path d="M344.8,458.6v-57.9c0-1.8-0.3-3-0.8-3.8c-0.5-0.8-1.7-1.3-3.3-1.8v-1.7h36.6c9.8,0,17.1,1.1,21.9,3.4
			c6,2.9,10.6,7.7,14,14.4c2.9,5.8,4.4,11.9,4.4,18.4c0,7.6-1.9,14.7-5.8,21c-3.4,5.6-7.6,9.5-12.8,11.8c-5.2,2.3-12.4,3.4-21.7,3.4
			h-36.6v-1.7c1.7-0.4,2.8-1,3.3-1.8C344.5,461.6,344.8,460.3,344.8,458.6z M354.1,458.8h22.7c8.6,0,14.9-1.2,18.8-3.5
			c4.4-2.5,7.7-6.6,9.8-12c1.6-4.1,2.4-8.7,2.4-13.7c0-8.8-2.3-15.9-6.8-21.2c-2.5-2.9-5.6-4.9-9.3-6.1s-8.7-1.8-15-1.8h-22.7V458.8
			z"/>
		<path d="M435.5,458.6v-57.9c0-1.8-0.3-3.1-0.8-3.8c-0.6-0.7-1.7-1.3-3.3-1.7v-1.7h17.5v1.7c-1.6,0.4-2.7,1-3.3,1.7
			c-0.6,0.7-0.8,2-0.8,3.8v57.9c0,1.8,0.3,3,0.8,3.8c0.6,0.8,1.7,1.3,3.3,1.8v1.7h-17.5v-1.7c1.6-0.4,2.7-1,3.3-1.8
			S435.5,460.3,435.5,458.6z"/>
		<path d="M476.3,404.7v53.9c0,1.8,0.3,3,0.8,3.8c0.5,0.8,1.7,1.3,3.3,1.8v1.7h-16v-1.7c1.7-0.4,2.8-1,3.3-1.8
			c0.5-0.8,0.8-2,0.8-3.8v-57.9c0-1.8-0.3-3.1-0.8-3.8c-0.6-0.7-1.7-1.3-3.3-1.7v-1.7H488v1.7c-2.2,0.7-3.4,1.9-3.4,3.4
			c0,1.3,0.8,2.8,2.5,4.7l42.8,47.9v-50.4c0-1.8-0.3-3.1-0.8-3.8c-0.6-0.7-1.7-1.3-3.3-1.7v-1.7h16v1.7c-1.6,0.4-2.7,1-3.3,1.7
			c-0.6,0.7-0.8,2-0.8,3.8v57.9c0,1.8,0.3,3,0.8,3.8c0.5,0.8,1.7,1.3,3.3,1.8v1.7h-19v-1.7c2.2-0.6,3.4-1.4,3.4-2.7
			c0-0.9-1-2.5-3.1-4.9L476.3,404.7z"/>
		<path d="M635.2,400.2l-8.9,14.2l-1.5-0.9c0.4-1.5,0.6-2.5,0.6-3c0-1.1-2-2.9-6.1-5.2c-6.6-3.8-13.7-5.6-21.2-5.6
			c-9.1,0-16.7,2.6-22.8,7.9c-6.7,5.8-10.1,13.4-10.1,22.6c0,8.8,3.1,15.9,9.3,21.5c6.1,5.6,14.1,8.3,24.1,8.3c5,0,9.8-0.7,14.3-2.2
			c4.5-1.5,8.4-3.5,11.5-6.2v-13.3h-16.3c-1.8,0-3.1,0.3-3.9,0.8c-0.8,0.6-1.3,1.7-1.7,3.3h-1.7V427h1.7c0.4,1.7,1,2.8,1.7,3.3
			c0.8,0.6,2,0.8,3.8,0.8h28.6v1.7c-1.7,0.4-2.8,1-3.3,1.7c-0.6,0.8-0.8,2-0.8,3.9v7.5c0,1.8,0.3,3.1,0.8,3.9
			c0.6,0.8,1.7,1.3,3.3,1.7v1.5c-11.2,9.6-24.3,14.4-39.1,14.4c-11.7,0-21.3-3.1-28.8-9.5c-4-3.4-7.2-7.5-9.4-12.3
			c-2.5-5.1-3.7-10.4-3.7-15.9c0-8.1,2.5-15.4,7.4-21.9c4.4-5.8,10.2-10,17.5-12.8c5.4-2,11.3-3,17.5-3c5.4,0,10.2,0.6,14.7,1.9
			c4.4,1.3,9.7,3.6,15.9,6.9c1,0.5,1.7,0.8,2.1,0.8c0.5,0,1.5-0.9,3-2.6L635.2,400.2z"/>
	</g>
	<text transform="matrix(6.123234e-17 -1 1 6.123234e-17 523.0569 314.6675)" class="st0 st1">&gt;</text>
	<g>
		<path d="M49.1,532.6c-0.1-0.4-0.1-0.8,0.1-1.1l0.4-0.8c0.2-0.3,0.5-0.6,0.9-0.7s0.8-0.1,1.1,0.1c0.4,0.2,0.6,0.6,0.7,1l18,12.3
			c0.4,0.3,0.6,0.7,0.6,1.3c0,0.5-0.2,1-0.7,1.2l-17.5,10.5c-0.1,0.4-0.3,0.7-0.7,0.9c-0.4,0.2-0.7,0.2-1.1,0.1
			c-0.4-0.1-0.7-0.3-0.9-0.7l-0.4-0.8c-0.2-0.4-0.3-0.7-0.2-1.1c0.1-0.4,0.4-0.7,0.7-0.9c0.2-0.2,0.6-0.3,1.1-0.2l15.5-9.3l-16-10.9
			c-0.3,0.1-0.7,0.1-1-0.2C49.4,533.3,49.2,533,49.1,532.6z"/>
		<path d="M80.2,532.6c-0.1-0.4-0.1-0.8,0.1-1.1l0.4-0.8c0.2-0.3,0.5-0.6,0.9-0.7s0.8-0.1,1.1,0.1c0.4,0.2,0.6,0.6,0.7,1l18,12.3
			c0.4,0.3,0.6,0.7,0.6,1.3c0,0.5-0.2,1-0.7,1.2l-17.5,10.5c-0.1,0.4-0.3,0.7-0.7,0.9c-0.4,0.2-0.7,0.2-1.1,0.1
			c-0.4-0.1-0.7-0.3-0.9-0.7l-0.4-0.8c-0.2-0.4-0.3-0.7-0.2-1.1c0.1-0.4,0.4-0.7,0.7-0.9c0.2-0.2,0.6-0.3,1.1-0.2l15.5-9.3l-16-10.9
			c-0.3,0.1-0.7,0.1-1-0.2C80.5,533.3,80.3,533,80.2,532.6z"/>
		<path d="M111.3,532.6c-0.1-0.4-0.1-0.8,0.1-1.1l0.4-0.8c0.2-0.3,0.5-0.6,0.9-0.7s0.8-0.1,1.1,0.1c0.4,0.2,0.6,0.6,0.7,1l18,12.3
			c0.4,0.3,0.6,0.7,0.6,1.3c0,0.5-0.2,1-0.7,1.2L115,556.5c-0.1,0.4-0.3,0.7-0.7,0.9c-0.4,0.2-0.7,0.2-1.1,0.1
			c-0.4-0.1-0.7-0.3-0.9-0.7l-0.4-0.8c-0.2-0.4-0.3-0.7-0.2-1.1c0.1-0.4,0.4-0.7,0.7-0.9c0.2-0.2,0.6-0.3,1.1-0.2l15.5-9.3l-16-10.9
			c-0.3,0.1-0.7,0.1-1-0.2C111.6,533.3,111.4,533,111.3,532.6z"/>
		<path d="M142.3,533c0-0.7,0.2-1.3,0.7-1.8c0.5-0.5,1-0.7,1.7-0.7h0.9c0.7,0,1.3,0.2,1.7,0.7s0.7,1.1,0.7,1.8v40.7
			c0.3,0.5,0.4,0.9,0.4,1.5c0,0.7-0.2,1.3-0.7,1.8c-0.5,0.5-1,0.7-1.7,0.7h-0.9c-0.7,0-1.3-0.2-1.7-0.7c-0.5-0.5-0.7-1.1-0.7-1.8
			c0-0.5,0.1-1,0.4-1.5v-38.8C142.6,534.4,142.3,533.8,142.3,533z"/>
		<path d="M158.7,533c0-0.7,0.2-1.3,0.7-1.8c0.5-0.5,1-0.7,1.7-0.7h0.9c0.7,0,1.3,0.2,1.7,0.7c0.5,0.5,0.7,1.1,0.7,1.8v9.2
			c0.3,0.5,0.4,0.9,0.4,1.5c0,0.7-0.2,1.3-0.7,1.8s-1,0.7-1.7,0.7h-0.9c-0.7,0-1.3-0.2-1.7-0.7s-0.7-1.1-0.7-1.8
			c0-0.5,0.1-1,0.4-1.4v-7.3C159,534.4,158.7,533.8,158.7,533z"/>
		<path d="M174,533c0-0.7,0.2-1.3,0.7-1.8c0.5-0.5,1-0.7,1.7-0.7h0.9c0.7,0,1.3,0.2,1.7,0.7c0.5,0.5,0.7,1.1,0.7,1.8v9.2
			c0.3,0.5,0.4,0.9,0.4,1.5c0,0.7-0.2,1.3-0.7,1.8s-1,0.7-1.7,0.7h-0.9c-0.7,0-1.3-0.2-1.7-0.7s-0.7-1.1-0.7-1.8
			c0-0.5,0.1-1,0.4-1.4v-7.3C174.3,534.4,174,533.8,174,533z"/>
		<path d="M188.3,558.1v-0.9c0-0.7,0.2-1.3,0.7-1.8s1-0.7,1.7-0.7c0.8,0,1.4,0.3,1.8,0.8l6.8-0.2v-18.3c0-0.4-0.1-0.8-0.4-1.1
			c-0.3-0.3-0.7-0.5-1.3-0.5c-1.5,0-2.8,0.3-3.8,1c-0.1,0.6-0.4,1.1-0.8,1.5c-0.5,0.4-1,0.6-1.6,0.6c-0.7,0-1.3-0.2-1.7-0.7
			c-0.5-0.5-0.7-1.1-0.7-1.8v-0.9c0-0.8,0.3-1.4,0.9-1.9c2.2-1.8,4.8-2.7,7.7-2.7c2.1,0,3.7,0.6,4.9,1.7c1.2,1.1,1.8,2.7,1.8,4.9
			V556c0,1.3-0.4,2.4-1.3,3.1c-0.8,0.8-1.9,1.2-3.1,1.2l-9,0.3c-0.7,0-1.3-0.2-1.8-0.7C188.6,559.5,188.3,558.9,188.3,558.1z"/>
		<path d="M212.4,537.6v-0.7c0-1,0.4-1.7,1.3-2.2c5.4-2.9,10.6-4.4,15.4-4.4c2.9,0,5.2,0.8,6.8,2.3c1.6,1.5,2.4,3.8,2.4,6.7v15.1
			h0.1c0.5-0.4,1-0.5,1.5-0.5c0.7,0,1.3,0.2,1.7,0.7s0.7,1.1,0.7,1.8v0.9c0,0.7-0.2,1.3-0.7,1.8s-1,0.7-1.7,0.7
			c-0.5,0-0.9-0.1-1.3-0.4l-22,1.4c-0.5,0.4-1,0.6-1.5,0.6c-0.7,0-1.3-0.2-1.7-0.7s-0.7-1.1-0.7-1.8v-0.9c0-0.7,0.2-1.3,0.7-1.8
			c0.5-0.5,1-0.7,1.7-0.7c0.5,0,0.9,0.1,1.3,0.4l17-1v-15.5c0-1.6-0.3-2.6-0.9-3.2c-0.6-0.6-1.7-0.8-3.4-0.8c-3.9,0-7.9,1.1-12,3.2
			c-0.2,0.5-0.5,0.9-0.9,1.2c-0.4,0.3-0.9,0.5-1.4,0.5c-0.7,0-1.3-0.2-1.7-0.7S212.4,538.3,212.4,537.6z"/>
		<path d="M273.3,522.4c0-0.7,0.2-1.3,0.7-1.8s1-0.7,1.7-0.7h0.9c0.7,0,1.3,0.2,1.7,0.7s0.7,1.1,0.7,1.8c0,0.5-0.1,1-0.4,1.4v7.4
			c2.8-0.5,6.7-0.7,12-0.7c3.5,0,6.2,1,8.1,2.9c1.9,1.9,2.8,4.5,2.8,7.8c0,6.1-4.5,12-13.5,17.9c-0.2,0.4-0.5,0.8-0.9,1.1
			c-0.6,0.4-1.2,0.5-1.8,0.4s-1.2-0.5-1.6-1l-0.5-0.7c-0.4-0.6-0.5-1.2-0.4-1.9c0.1-0.7,0.5-1.2,1-1.6c0.5-0.3,1-0.4,1.5-0.4
			c4-2.6,6.8-5.1,8.6-7.4c1.7-2.3,2.6-4.4,2.6-6.3c0-1.9-0.5-3.3-1.4-4.3c-0.9-1-2.5-1.5-4.6-1.5c-6.1,0-10.7,0.4-13.8,1.2
			c-0.8,0.2-1.5,0-2.1-0.5c-0.6-0.5-0.9-1.2-0.9-1.9v-10.4C273.4,523.4,273.3,522.9,273.3,522.4z"/>
		<path d="M309.6,533c0-0.7,0.2-1.3,0.7-1.8c0.5-0.5,1-0.7,1.7-0.7h0.9c0.7,0,1.3,0.2,1.7,0.7c0.5,0.5,0.7,1.1,0.7,1.8v9.2
			c0.3,0.5,0.4,0.9,0.4,1.5c0,0.7-0.2,1.3-0.7,1.8s-1,0.7-1.7,0.7h-0.9c-0.7,0-1.3-0.2-1.7-0.7s-0.7-1.1-0.7-1.8
			c0-0.5,0.1-1,0.4-1.4v-7.3C309.9,534.4,309.6,533.8,309.6,533z"/>
		<path d="M324,537.6v-0.7c0-1,0.4-1.7,1.3-2.2c5.4-2.9,10.6-4.4,15.4-4.4c2.9,0,5.2,0.8,6.8,2.3c1.6,1.5,2.4,3.8,2.4,6.7v15.1h0.1
			c0.5-0.4,1-0.5,1.5-0.5c0.7,0,1.3,0.2,1.7,0.7s0.7,1.1,0.7,1.8v0.9c0,0.7-0.2,1.3-0.7,1.8s-1,0.7-1.7,0.7c-0.5,0-0.9-0.1-1.3-0.4
			l-22,1.4c-0.5,0.4-1,0.6-1.5,0.6c-0.7,0-1.3-0.2-1.7-0.7s-0.7-1.1-0.7-1.8v-0.9c0-0.7,0.2-1.3,0.7-1.8c0.5-0.5,1-0.7,1.7-0.7
			c0.5,0,0.9,0.1,1.3,0.4l17-1v-15.5c0-1.6-0.3-2.6-0.9-3.2c-0.6-0.6-1.7-0.8-3.4-0.8c-3.9,0-7.9,1.1-12,3.2
			c-0.2,0.5-0.5,0.9-0.9,1.2c-0.4,0.3-0.9,0.5-1.4,0.5c-0.7,0-1.3-0.2-1.7-0.7S324,538.3,324,537.6z"/>
		<path d="M363.1,533c0-0.7,0.2-1.3,0.7-1.8c0.5-0.5,1-0.7,1.7-0.7h0.9c0.7,0,1.3,0.2,1.8,0.7c0.5,0.5,0.7,1.1,0.7,1.8v23.3
			c0.3,0.4,0.4,0.9,0.4,1.4c0,0.7-0.2,1.3-0.7,1.8c-0.5,0.5-1,0.7-1.7,0.7h-0.9c-0.7,0-1.3-0.2-1.7-0.7s-0.7-1.1-0.7-1.8
			c0-0.5,0.1-1,0.4-1.4v-21.5C363.3,534.4,363.1,533.8,363.1,533z"/>
		<path d="M378.9,537.1v-0.8c0-1.1,0.5-1.8,1.4-2.2c5.4-2.5,10.7-3.8,15.9-3.8c7.2,0,10.8,3.3,10.8,10v16.1c0.3,0.4,0.4,0.9,0.4,1.4
			c0,0.7-0.2,1.3-0.7,1.8s-1,0.7-1.7,0.7h-0.9c-0.7,0-1.3-0.2-1.7-0.7s-0.7-1.1-0.7-1.8c0-0.5,0.1-1,0.4-1.4v-16.1
			c0-1.9-0.4-3.2-1.3-3.9c-0.9-0.7-2.4-1.1-4.5-1.1c-4.2,0-8.4,0.9-12.6,2.8c-0.2,0.5-0.5,0.8-0.9,1.1s-0.9,0.4-1.4,0.4
			c-0.7,0-1.3-0.2-1.7-0.7C379.1,538.4,378.9,537.8,378.9,537.1z M380.2,557.8c0-0.5,0.1-1,0.4-1.4v-6.9c-0.3-0.5-0.4-0.9-0.4-1.5
			c0-0.7,0.2-1.3,0.7-1.8c0.5-0.5,1-0.7,1.7-0.7h0.9c0.7,0,1.3,0.2,1.7,0.7c0.5,0.5,0.7,1.1,0.7,1.8c0,0.5-0.1,1-0.4,1.5v6.9
			c0.3,0.4,0.4,0.9,0.4,1.4c0,0.7-0.2,1.3-0.7,1.8s-1,0.7-1.7,0.7h-0.9c-0.7,0-1.3-0.2-1.7-0.7C380.5,559.1,380.2,558.5,380.2,557.8
			z"/>
		<path d="M415.5,522.4c0-0.7,0.2-1.3,0.7-1.8s1-0.7,1.7-0.7h0.9c0.7,0,1.3,0.2,1.7,0.7s0.7,1.1,0.7,1.8c0,0.5-0.1,1-0.4,1.4v7.4
			c2.8-0.5,6.7-0.7,12-0.7c3.5,0,6.2,1,8.1,2.9c1.9,1.9,2.8,4.5,2.8,7.8c0,6.1-4.5,12-13.5,17.9c-0.2,0.4-0.5,0.8-0.9,1.1
			c-0.6,0.4-1.2,0.5-1.8,0.4s-1.2-0.5-1.6-1l-0.5-0.7c-0.4-0.6-0.5-1.2-0.4-1.9c0.1-0.7,0.5-1.2,1-1.6c0.5-0.3,1-0.4,1.5-0.4
			c4-2.6,6.8-5.1,8.6-7.4c1.7-2.3,2.6-4.4,2.6-6.3c0-1.9-0.5-3.3-1.4-4.3c-0.9-1-2.5-1.5-4.6-1.5c-6.1,0-10.7,0.4-13.8,1.2
			c-0.8,0.2-1.5,0-2.1-0.5c-0.6-0.5-0.9-1.2-0.9-1.9v-10.4C415.7,523.4,415.5,522.9,415.5,522.4z"/>
		<path d="M474.7,522.4c0-0.7,0.2-1.3,0.7-1.8s1-0.7,1.7-0.7h0.9c0.7,0,1.3,0.2,1.7,0.7s0.7,1.1,0.7,1.8c0,0.5-0.1,1-0.4,1.4v7.4
			c2.8-0.5,6.7-0.7,12-0.7c3.5,0,6.2,1,8.1,2.9c1.9,1.9,2.8,4.5,2.8,7.8c0,6.1-4.5,12-13.5,17.9c-0.2,0.4-0.5,0.8-0.9,1.1
			c-0.6,0.4-1.2,0.5-1.8,0.4s-1.2-0.5-1.6-1l-0.5-0.7c-0.4-0.6-0.5-1.2-0.4-1.9c0.1-0.7,0.5-1.2,1-1.6c0.5-0.3,1-0.4,1.5-0.4
			c4-2.6,6.8-5.1,8.6-7.4c1.7-2.3,2.6-4.4,2.6-6.3c0-1.9-0.5-3.3-1.4-4.3c-0.9-1-2.5-1.5-4.6-1.5c-6.1,0-10.7,0.4-13.8,1.2
			c-0.8,0.2-1.5,0-2.1-0.5c-0.6-0.5-0.9-1.2-0.9-1.9v-10.4C474.8,523.4,474.7,522.9,474.7,522.4z"/>
		<path d="M510,535.7v-0.9c0-0.5,0.1-1,0.4-1.4c0.3-0.4,0.7-0.7,1.2-0.9c2.2-0.8,4.7-1.4,7.3-1.7c2.6-0.3,5.7-0.5,9.1-0.5
			c3.5,0,6.2,1,8.1,3c1.9,2,2.8,4.6,2.8,7.9c0,2.9-0.9,5.9-2.7,9.1s-4.3,6-7.4,8.6c-0.1,0.4-0.3,0.7-0.7,1.1
			c-0.5,0.5-1.1,0.7-1.7,0.6s-1.2-0.3-1.7-0.8l-0.6-0.6c-0.5-0.5-0.7-1.1-0.6-1.8c0-0.7,0.3-1.3,0.8-1.8c0.5-0.4,1-0.6,1.6-0.6
			c2.6-2.1,4.7-4.5,6.1-7s2.1-4.8,2.1-6.8c0-1.9-0.5-3.4-1.4-4.4c-0.9-1-2.5-1.5-4.6-1.5c-5.6,0-10,0.5-13.3,1.4
			c-0.4,1-1.2,1.5-2.3,1.5c-0.7,0-1.3-0.2-1.7-0.7S510,536.5,510,535.7z M512.9,575.2c0-0.5,0.1-1,0.4-1.5v-28.6
			c-0.3-0.5-0.4-0.9-0.4-1.4c0-0.7,0.2-1.3,0.7-1.8s1-0.7,1.7-0.7h0.9c0.7,0,1.3,0.2,1.7,0.7c0.5,0.5,0.7,1.1,0.7,1.8
			c0,0.5-0.1,1-0.4,1.4v28.6c0.3,0.5,0.4,0.9,0.4,1.5c0,0.7-0.2,1.3-0.7,1.8c-0.5,0.5-1,0.7-1.7,0.7h-0.9c-0.7,0-1.3-0.2-1.7-0.7
			C513.2,576.4,512.9,575.9,512.9,575.2z"/>
		<path d="M547,542.9c0-0.6,0.2-1,0.7-1.2l17.5-10.5c0.1-0.4,0.3-0.7,0.7-1c0.3-0.2,0.7-0.2,1.1-0.1c0.4,0.1,0.7,0.3,0.9,0.7
			l0.4,0.8c0.2,0.4,0.2,0.7,0.1,1.1c-0.1,0.4-0.3,0.7-0.7,0.9c-0.3,0.2-0.7,0.3-1.1,0.2l-15.5,9.3l16,11c0.4-0.1,0.7,0,1,0.2
			c0.3,0.2,0.6,0.5,0.7,0.9c0.1,0.4,0.1,0.8-0.1,1.1l-0.4,0.8c-0.2,0.4-0.5,0.6-0.9,0.7s-0.8,0.1-1.1-0.1c-0.4-0.2-0.6-0.5-0.7-1
			l-18-12.3C547.2,543.9,547,543.5,547,542.9z"/>
		<path d="M578.1,542.9c0-0.6,0.2-1,0.7-1.2l17.5-10.5c0.1-0.4,0.3-0.7,0.7-1c0.3-0.2,0.7-0.2,1.1-0.1c0.4,0.1,0.7,0.3,0.9,0.7
			l0.4,0.8c0.2,0.4,0.2,0.7,0.1,1.1c-0.1,0.4-0.3,0.7-0.7,0.9c-0.3,0.2-0.7,0.3-1.1,0.2l-15.5,9.3l16,11c0.4-0.1,0.7,0,1,0.2
			c0.3,0.2,0.6,0.5,0.7,0.9c0.1,0.4,0.1,0.8-0.1,1.1l-0.4,0.8c-0.2,0.4-0.5,0.6-0.9,0.7s-0.8,0.1-1.1-0.1c-0.4-0.2-0.6-0.5-0.7-1
			l-18-12.3C578.4,543.9,578.1,543.5,578.1,542.9z"/>
		<path d="M609.3,542.9c0-0.6,0.2-1,0.7-1.2l17.5-10.5c0.1-0.4,0.3-0.7,0.7-1c0.3-0.2,0.7-0.2,1.1-0.1c0.4,0.1,0.7,0.3,0.9,0.7
			l0.4,0.8c0.2,0.4,0.2,0.7,0.1,1.1c-0.1,0.4-0.3,0.7-0.7,0.9c-0.3,0.2-0.7,0.3-1.1,0.2l-15.5,9.3l16,11c0.4-0.1,0.7,0,1,0.2
			c0.3,0.2,0.6,0.5,0.7,0.9c0.1,0.4,0.1,0.8-0.1,1.1l-0.4,0.8c-0.2,0.4-0.5,0.6-0.9,0.7s-0.8,0.1-1.1-0.1c-0.4-0.2-0.6-0.5-0.7-1
			l-18-12.3C609.5,543.9,609.3,543.5,609.3,542.9z"/>
		<path d="M44.9,582.4c0.1-0.4,0.3-0.6,0.7-0.8c5.6-2.9,12.1-4.4,19.4-4.4c2.8,0,4.8,0.7,6,2c1.2,1.3,1.8,3.3,1.8,5.9v16.9
			c0.5,0.2,0.7,0.6,0.8,1.2c0,0.4-0.1,0.7-0.4,1s-0.6,0.4-0.9,0.5l-16.7,0.9c-0.1,0-0.3,0-0.5,0c-0.2,0-0.4,0-0.5,0
			c-2.3,0-4.1-0.6-5.2-1.9s-1.7-3.1-1.7-5.6v-14.3l-0.8,0.4c-0.3,0.2-0.7,0.2-1.1,0.1c-0.4-0.1-0.6-0.3-0.8-0.7
			C44.9,583.1,44.8,582.7,44.9,582.4z M50.5,597.9c0,1.7,0.3,2.9,0.9,3.6c0.6,0.7,1.6,1.1,3.1,1.1c0.1,0,0.2,0,0.4,0
			c0.2,0,0.3,0,0.4,0l14.7-0.8V585c0-1.8-0.3-3.1-1-3.9s-2-1.2-3.9-1.2c-5.4,0-10.2,0.8-14.5,2.5V597.9z"/>
		<path d="M78.1,578.8c0-0.4,0.1-0.7,0.4-1c0.3-0.3,0.6-0.4,1-0.4h0.8c0.4,0,0.7,0.1,1,0.4c0.3,0.3,0.4,0.6,0.4,1v9.7
			c0.3,0.2,0.4,0.6,0.4,1c0,0.4-0.1,0.7-0.4,1c-0.3,0.3-0.6,0.4-1,0.4h-0.8c-0.4,0-0.7-0.1-1-0.4c-0.3-0.3-0.4-0.6-0.4-1
			c0-0.4,0.1-0.7,0.4-1v-8.4C78.4,579.9,78.1,579.5,78.1,578.8z"/>
		<path d="M86.3,568.9c0-0.4,0.1-0.7,0.4-1c0.3-0.3,0.6-0.4,1-0.4h0.8c0.4,0,0.7,0.1,1,0.4s0.4,0.6,0.4,1c0,0.4-0.1,0.7-0.4,1v8.5
			c3.1-0.6,7.6-0.9,13.4-0.9c3.3,0,5.8,0.9,7.5,2.6c1.7,1.7,2.6,4.1,2.6,7.1c0,5.8-4.5,11.6-13.6,17.4c0,0.3-0.2,0.6-0.6,0.8
			c-0.3,0.2-0.7,0.3-1.1,0.2c-0.4-0.1-0.7-0.3-0.9-0.6l-0.5-0.7c-0.2-0.3-0.3-0.7-0.2-1c0.1-0.4,0.3-0.7,0.6-0.9
			c0.4-0.2,0.7-0.3,1.1-0.2c8.2-5.2,12.3-10.2,12.3-15c0-4.6-2.4-7-7.3-7c-6.3,0-11.1,0.4-14.5,1.2c-0.5,0.1-0.9,0-1.2-0.2
			c-0.3-0.3-0.5-0.6-0.5-1.1v-10.2C86.4,569.6,86.3,569.3,86.3,568.9z"/>
		<path d="M116.6,578.8c0-0.4,0.1-0.7,0.4-1c0.3-0.3,0.6-0.4,1-0.4h0.8c0.4,0,0.7,0.1,1,0.4c0.3,0.3,0.4,0.6,0.4,1v9.7
			c0.3,0.2,0.4,0.6,0.4,1c0,0.4-0.1,0.7-0.4,1c-0.3,0.3-0.6,0.4-1,0.4h-0.8c-0.4,0-0.7-0.1-1-0.4c-0.3-0.3-0.4-0.6-0.4-1
			c0-0.4,0.1-0.7,0.4-1v-8.4C116.9,579.9,116.6,579.5,116.6,578.8z"/>
		<path d="M124.8,583.5v-0.8c0-0.6,0.2-1,0.7-1.2c1.6-0.9,3.1-1.6,4.5-2.1c1.4-0.5,3-1,4.9-1.5c1.8-0.5,3.7-0.7,5.9-0.7
			c5.6,0,8.3,2.6,8.3,7.9v16.4l1.7-0.1c0.3-0.3,0.7-0.5,1.1-0.5s0.7,0.1,1,0.4c0.3,0.3,0.4,0.6,0.4,1v0.8c0,0.4-0.1,0.7-0.4,1
			c-0.3,0.3-0.6,0.4-1,0.4c-0.4,0-0.7-0.1-0.9-0.4l-23.4,1.4c-0.3,0.3-0.7,0.5-1.1,0.5c-0.4,0-0.7-0.1-1-0.4c-0.3-0.3-0.4-0.6-0.4-1
			v-0.8c0-0.4,0.1-0.7,0.4-1c0.3-0.3,0.6-0.4,1-0.4c0.4,0,0.7,0.1,0.9,0.4l18.9-1.2v-16.6c0-1.8-0.4-3.1-1.2-3.9
			c-0.8-0.8-2.3-1.2-4.3-1.2c-1.9,0-3.7,0.2-5.2,0.6c-3,0.8-5.6,1.8-8,3c0,0.4-0.1,0.7-0.4,1c-0.3,0.3-0.6,0.4-1,0.4s-0.7-0.1-1-0.4
			C125,584.3,124.8,583.9,124.8,583.5z"/>
		<path d="M158.4,578.8c0-0.4,0.1-0.7,0.4-1c0.3-0.3,0.6-0.4,1-0.4h0.8c0.4,0,0.7,0.1,1,0.4c0.3,0.3,0.4,0.6,0.4,1v24
			c0.3,0.2,0.4,0.6,0.4,1c0,0.4-0.1,0.7-0.4,1c-0.3,0.3-0.6,0.4-1,0.4h-0.8c-0.4,0-0.7-0.1-1-0.4c-0.3-0.3-0.4-0.6-0.4-1
			c0-0.4,0.1-0.7,0.4-1v-22.7C158.7,579.9,158.4,579.4,158.4,578.8z"/>
		<path d="M168.5,578.8c0-0.4,0.1-0.7,0.4-1s0.6-0.4,1-0.4h0.8c0.4,0,0.7,0.1,1,0.4c0.3,0.3,0.4,0.6,0.4,1v4.4
			c1.8-2,3.9-3.5,6.4-4.5c2.5-1,5.1-1.5,8-1.5c1.7,0,3.1,0.3,4.4,0.8c1.3,0.5,2.2,1.2,3,2c0.7,0.8,1.3,1.8,1.8,3.1
			c0.4,1.2,0.7,2.4,0.9,3.6c0.2,1.2,0.2,2.5,0.2,4c0,4.7-1.4,8.4-4.2,11.1c-2.6,2.4-5.6,3.7-9,3.7c-1.2,0-2.4-0.2-3.7-0.5
			c-0.7-0.2-1-0.7-1-1.4v-0.8c0-0.4,0.1-0.7,0.4-1c0.3-0.3,0.6-0.4,1-0.4c0.3,0,0.6,0.1,0.9,0.3c0.3,0.2,0.4,0.5,0.5,0.8
			c0.9,0.1,1.5,0.2,2,0.2c2.7,0,5.1-1,7.1-2.9c2.3-2.1,3.4-5.1,3.4-9.1c0-1.3-0.1-2.4-0.2-3.4c-0.1-1-0.3-2-0.7-2.9
			c-0.3-1-0.8-1.7-1.3-2.3s-1.3-1.1-2.2-1.5s-2-0.6-3.2-0.6c-2.9,0-5.5,0.6-7.8,1.7c-2.3,1.1-4.2,2.7-5.7,4.8
			c-0.2,0.3-0.5,0.5-0.9,0.6v15.8c0.3,0.2,0.4,0.6,0.4,1c0,0.4-0.1,0.7-0.4,1c-0.3,0.3-0.6,0.4-1,0.4h-0.8c-0.4,0-0.7-0.1-1-0.4
			c-0.3-0.3-0.4-0.6-0.4-1c0-0.4,0.1-0.8,0.4-1v-22.7C168.7,579.9,168.5,579.4,168.5,578.8z"/>
		<path d="M219,582.4c0.1-0.4,0.3-0.6,0.7-0.8c5.6-2.9,12.1-4.4,19.4-4.4c2.8,0,4.8,0.7,6,2c1.2,1.3,1.8,3.3,1.8,5.9v16.9
			c0.5,0.2,0.7,0.6,0.8,1.2c0,0.4-0.1,0.7-0.4,1c-0.3,0.3-0.6,0.4-1,0.5l-16.7,0.9c-0.1,0-0.3,0-0.5,0c-0.2,0-0.4,0-0.5,0
			c-2.3,0-4.1-0.6-5.2-1.9s-1.7-3.1-1.7-5.6v-14.3L221,584c-0.3,0.2-0.7,0.2-1.1,0.1c-0.4-0.1-0.6-0.3-0.8-0.7
			C218.9,583.1,218.9,582.7,219,582.4z M224.6,597.9c0,1.7,0.3,2.9,0.9,3.6c0.6,0.7,1.6,1.1,3.1,1.1c0.1,0,0.2,0,0.4,0
			c0.2,0,0.3,0,0.4,0l14.7-0.8V585c0-1.8-0.3-3.1-1-3.9s-2-1.2-3.9-1.2c-5.4,0-10.2,0.8-14.5,2.5V597.9z"/>
		<path d="M252.2,578.8c0-0.4,0.1-0.7,0.4-1c0.3-0.3,0.6-0.4,1-0.4h0.8c0.4,0,0.7,0.1,1,0.4c0.3,0.3,0.4,0.6,0.4,1v9.7
			c0.3,0.2,0.4,0.6,0.4,1c0,0.4-0.1,0.7-0.4,1c-0.3,0.3-0.6,0.4-1,0.4H254c-0.4,0-0.7-0.1-1-0.4c-0.3-0.3-0.4-0.6-0.4-1
			c0-0.4,0.1-0.7,0.4-1v-8.4C252.5,579.9,252.2,579.5,252.2,578.8z"/>
		<path d="M260.4,604.2v-0.8c0-0.4,0.1-0.7,0.4-1c0.3-0.3,0.6-0.4,1-0.4c0.6,0,1,0.3,1.3,0.8l7.9-0.2c0.2,0,0.4,0,0.5-0.1
			s0.2-0.2,0.2-0.4v-19.2c0-0.8-0.2-1.5-0.5-1.9c0-0.1-0.1-0.2-0.2-0.3c-0.4-0.3-1.2-0.5-2.2-0.5c-1.9,0-3.6,0.5-5,1.5v0.1
			c0,0.4-0.1,0.7-0.4,1c-0.3,0.3-0.6,0.4-1,0.4s-0.7-0.1-1-0.4c-0.3-0.3-0.4-0.6-0.4-1v-0.8c0-0.5,0.2-0.8,0.5-1.1
			c2.1-1.7,4.5-2.5,7.2-2.5c1.7,0,3,0.4,4,1.2c0.2,0.2,0.5,0.4,0.7,0.7c0.7,0.9,1,2.1,1,3.6V602c0,1-0.3,1.8-1,2.4
			c-0.6,0.6-1.5,0.9-2.5,0.9l-9.2,0.3c-0.4,0-0.8-0.1-1-0.4C260.5,604.9,260.4,604.6,260.4,604.2z"/>
		<path d="M279.1,578.8c0-0.4,0.1-0.7,0.4-1c0.3-0.3,0.6-0.4,1-0.4h0.8c0.4,0,0.7,0.1,1,0.4c0.3,0.3,0.4,0.6,0.4,1v9.7
			c0.3,0.2,0.4,0.6,0.4,1c0,0.4-0.1,0.7-0.4,1c-0.3,0.3-0.6,0.4-1,0.4h-0.8c-0.4,0-0.7-0.1-1-0.4c-0.3-0.3-0.4-0.6-0.4-1
			c0-0.4,0.1-0.7,0.4-1v-8.4C279.4,579.9,279.1,579.5,279.1,578.8z"/>
		<path d="M287.8,578.8c0-0.4,0.1-0.7,0.4-1c0.3-0.3,0.6-0.4,1-0.4h0.8c0.4,0,0.7,0.1,1,0.4c0.3,0.3,0.4,0.6,0.4,1v9.7
			c0.3,0.2,0.4,0.6,0.4,1c0,0.4-0.1,0.7-0.4,1c-0.3,0.3-0.6,0.4-1,0.4h-0.8c-0.4,0-0.7-0.1-1-0.4c-0.3-0.3-0.4-0.6-0.4-1
			c0-0.4,0.1-0.7,0.4-1v-8.4C288,579.9,287.8,579.5,287.8,578.8z"/>
		<path d="M296,604.2v-0.8c0-0.4,0.1-0.7,0.4-1c0.3-0.3,0.6-0.4,1-0.4c0.6,0,1,0.3,1.3,0.8l7.9-0.2c0.2,0,0.4,0,0.5-0.1
			s0.2-0.2,0.2-0.4v-19.2c0-0.8-0.2-1.5-0.5-1.9c0-0.1-0.1-0.2-0.2-0.3c-0.4-0.3-1.2-0.5-2.2-0.5c-1.9,0-3.6,0.5-5,1.5v0.1
			c0,0.4-0.1,0.7-0.4,1c-0.3,0.3-0.6,0.4-1,0.4s-0.7-0.1-1-0.4c-0.3-0.3-0.4-0.6-0.4-1v-0.8c0-0.5,0.2-0.8,0.5-1.1
			c2.1-1.7,4.5-2.5,7.2-2.5c1.7,0,3,0.4,4,1.2c0.2,0.2,0.5,0.4,0.7,0.7c0.7,0.9,1,2.1,1,3.6V602c0,1-0.3,1.8-1,2.4
			c-0.6,0.6-1.5,0.9-2.5,0.9l-9.2,0.3c-0.4,0-0.8-0.1-1-0.4C296.1,604.9,296,604.6,296,604.2z"/>
		<path d="M314.2,583.5v-0.8c0-0.6,0.2-1,0.7-1.2c1.6-0.9,3.1-1.6,4.5-2.1c1.4-0.5,3-1,4.9-1.5c1.8-0.5,3.7-0.7,5.9-0.7
			c5.6,0,8.3,2.6,8.3,7.9v16.4l1.7-0.1c0.3-0.3,0.7-0.5,1.1-0.5s0.7,0.1,1,0.4c0.3,0.3,0.4,0.6,0.4,1v0.8c0,0.4-0.1,0.7-0.4,1
			c-0.3,0.3-0.6,0.4-1,0.4c-0.4,0-0.7-0.1-0.9-0.4l-23.4,1.4c-0.3,0.3-0.7,0.5-1.1,0.5c-0.4,0-0.7-0.1-1-0.4c-0.3-0.3-0.4-0.6-0.4-1
			v-0.8c0-0.4,0.1-0.7,0.4-1c0.3-0.3,0.6-0.4,1-0.4c0.4,0,0.7,0.1,0.9,0.4l18.9-1.2v-16.6c0-1.8-0.4-3.1-1.2-3.9
			c-0.8-0.8-2.3-1.2-4.3-1.2c-1.9,0-3.7,0.2-5.2,0.6c-3,0.8-5.6,1.8-8,3c0,0.4-0.1,0.7-0.4,1c-0.3,0.3-0.6,0.4-1,0.4s-0.7-0.1-1-0.4
			C314.3,584.3,314.2,583.9,314.2,583.5z"/>
		<path d="M345.9,568.9c0-0.4,0.1-0.7,0.4-1c0.3-0.3,0.6-0.4,1-0.4h0.8c0.4,0,0.7,0.1,1,0.4s0.4,0.6,0.4,1c0,0.4-0.1,0.7-0.4,1v8.5
			c3.1-0.6,7.6-0.9,13.4-0.9c3.3,0,5.8,0.9,7.5,2.6c1.7,1.7,2.6,4.1,2.6,7.1c0,5.8-4.5,11.6-13.6,17.4c0,0.3-0.2,0.6-0.6,0.8
			c-0.3,0.2-0.7,0.3-1.1,0.2c-0.4-0.1-0.7-0.3-0.9-0.6l-0.5-0.7c-0.2-0.3-0.3-0.7-0.2-1s0.3-0.7,0.6-0.9c0.4-0.2,0.7-0.3,1.1-0.2
			c8.2-5.2,12.3-10.2,12.3-15c0-4.6-2.4-7-7.3-7c-6.3,0-11.1,0.4-14.5,1.2c-0.5,0.1-0.9,0-1.2-0.2c-0.3-0.3-0.5-0.6-0.5-1.1v-10.2
			C346.1,569.6,345.9,569.3,345.9,568.9z"/>
		<path d="M394.3,568.9c0-0.4,0.1-0.7,0.4-1c0.3-0.3,0.6-0.4,1-0.4h0.8c0.4,0,0.7,0.1,1,0.4s0.4,0.6,0.4,1c0,0.4-0.1,0.7-0.4,1v8.5
			c3.1-0.6,7.6-0.9,13.4-0.9c3.3,0,5.8,0.9,7.5,2.6c1.7,1.7,2.6,4.1,2.6,7.1c0,5.8-4.5,11.6-13.6,17.4c0,0.3-0.2,0.6-0.6,0.8
			c-0.3,0.2-0.7,0.3-1.1,0.2c-0.4-0.1-0.7-0.3-0.9-0.6l-0.5-0.7c-0.2-0.3-0.3-0.7-0.2-1s0.3-0.7,0.6-0.9c0.4-0.2,0.7-0.3,1.1-0.2
			c8.2-5.2,12.3-10.2,12.3-15c0-4.6-2.4-7-7.3-7c-6.3,0-11.1,0.4-14.5,1.2c-0.5,0.1-0.9,0-1.2-0.2c-0.3-0.3-0.5-0.6-0.5-1.1v-10.2
			C394.5,569.6,394.3,569.3,394.3,568.9z"/>
		<path d="M426.1,578.8c0-0.4,0.1-0.7,0.4-1c0.3-0.3,0.6-0.4,1-0.4h0.8c0.4,0,0.7,0.1,1,0.4c0.3,0.3,0.4,0.6,0.4,1v24
			c0.3,0.2,0.4,0.6,0.4,1c0,0.4-0.1,0.7-0.4,1c-0.3,0.3-0.6,0.4-1,0.4h-0.8c-0.4,0-0.7-0.1-1-0.4c-0.3-0.3-0.4-0.6-0.4-1
			c0-0.4,0.1-0.7,0.4-1v-22.7C426.3,579.9,426.1,579.4,426.1,578.8z"/>
		<path d="M435.6,583v-0.8c0-0.6,0.3-1,0.8-1.3c3.1-1.5,6.4-2.6,10-3.2c0.4-0.1,0.8-0.2,1.3-0.2s0.8-0.1,1.1-0.1
			c0.3,0,0.7-0.1,1.1-0.1c0.5,0,0.8,0,1,0c0.2,0,0.6,0,1.2,0c0.6,0,0.9,0,1.1,0c2.9-0.1,5.2,0.7,6.7,2.2c1.5,1.6,2.3,3.8,2.3,6.7
			v16.7c0.3,0.2,0.4,0.6,0.4,1c0,0.4-0.1,0.7-0.4,1s-0.6,0.4-1,0.4h-0.8c-0.4,0-0.7-0.1-1-0.4s-0.4-0.6-0.4-1c0-0.4,0.1-0.8,0.4-1
			v-16.7c0-2.1-0.5-3.6-1.5-4.6c-1-1-2.6-1.5-4.7-1.5c-2.7,0-4.7,0.1-6.2,0.4c-3,0.6-5.9,1.5-8.5,2.7c0,0.4-0.2,0.7-0.4,1
			c-0.3,0.3-0.6,0.4-0.9,0.4c-0.4,0-0.7-0.1-1-0.4C435.8,583.7,435.6,583.4,435.6,583z M437.1,603.8c0-0.4,0.1-0.8,0.4-1v-8
			c-0.3-0.2-0.4-0.6-0.4-1c0-0.4,0.1-0.7,0.4-1c0.3-0.3,0.6-0.4,1-0.4h0.8c0.4,0,0.7,0.1,1,0.4c0.3,0.3,0.4,0.6,0.4,1
			c0,0.4-0.1,0.7-0.4,1v8c0.3,0.2,0.4,0.6,0.4,1c0,0.4-0.1,0.7-0.4,1c-0.3,0.3-0.6,0.4-1,0.4h-0.8c-0.4,0-0.7-0.1-1-0.4
			C437.2,604.6,437.1,604.2,437.1,603.8z"/>
		<path d="M467.2,578.8c0-0.4,0.1-0.7,0.4-1c0.3-0.3,0.6-0.4,1-0.4h0.8c0.4,0,0.7,0.1,1,0.4c0.3,0.3,0.4,0.6,0.4,1v9.7
			c0.3,0.2,0.4,0.6,0.4,1c0,0.4-0.1,0.7-0.4,1c-0.3,0.3-0.6,0.4-1,0.4H469c-0.4,0-0.7-0.1-1-0.4c-0.3-0.3-0.4-0.6-0.4-1
			c0-0.4,0.1-0.7,0.4-1v-8.4C467.5,579.9,467.2,579.5,467.2,578.8z"/>
		<path d="M475.4,604.2v-0.8c0-0.4,0.1-0.7,0.4-1c0.3-0.3,0.6-0.4,1-0.4c0.6,0,1,0.3,1.3,0.8l7.9-0.2c0.2,0,0.4,0,0.5-0.1
			s0.2-0.2,0.2-0.4v-19.2c0-0.8-0.2-1.5-0.5-1.9c0-0.1-0.1-0.2-0.2-0.3c-0.4-0.3-1.2-0.5-2.2-0.5c-1.9,0-3.6,0.5-5,1.5v0.1
			c0,0.4-0.1,0.7-0.4,1c-0.3,0.3-0.6,0.4-1,0.4s-0.7-0.1-1-0.4c-0.3-0.3-0.4-0.6-0.4-1v-0.8c0-0.5,0.2-0.8,0.5-1.1
			c2.1-1.7,4.5-2.5,7.2-2.5c1.7,0,3,0.4,4,1.2c0.2,0.2,0.5,0.4,0.7,0.7c0.7,0.9,1,2.1,1,3.6V602c0,1-0.3,1.8-1,2.4
			c-0.6,0.6-1.5,0.9-2.5,0.9l-9.2,0.3c-0.4,0-0.8-0.1-1-0.4C475.6,604.9,475.4,604.6,475.4,604.2z"/>
		<path d="M512.2,581.4v-0.8c0-0.7,0.3-1.1,0.9-1.3c3.9-1.4,9.4-2.1,16.4-2.1c3.3,0,5.8,0.9,7.5,2.6c1.7,1.7,2.6,4.1,2.6,7.2
			c0,2.8-0.9,5.8-2.7,9c-1.8,3.2-4.3,6-7.5,8.5c-0.1,0.3-0.2,0.6-0.5,0.8c-0.3,0.3-0.6,0.4-1,0.4s-0.7-0.2-1-0.5l-0.5-0.6
			c-0.3-0.3-0.4-0.6-0.4-1c0-0.4,0.2-0.7,0.5-1c0.3-0.3,0.7-0.4,1.2-0.4c2-1.5,3.7-3.2,5.1-5.1c1.4-1.9,2.5-3.7,3.1-5.4s1-3.3,1-4.8
			c0-4.6-2.4-7-7.3-7c-6.2,0-11.1,0.5-14.5,1.6c0,0.3-0.2,0.6-0.5,0.9c-0.3,0.2-0.6,0.3-0.9,0.3c-0.4,0-0.7-0.1-1-0.4
			C512.3,582.1,512.2,581.8,512.2,581.4z M515.2,620c0-0.4,0.1-0.7,0.4-1v-28.6c-0.3-0.2-0.4-0.6-0.4-1c0-0.4,0.1-0.7,0.4-1
			s0.6-0.4,1-0.4h0.8c0.4,0,0.7,0.1,1,0.4c0.3,0.3,0.4,0.6,0.4,1c0,0.4-0.1,0.8-0.4,1v28.6c0.3,0.2,0.4,0.5,0.4,1
			c0,0.4-0.1,0.7-0.4,1c-0.3,0.3-0.6,0.4-1,0.4h-0.8c-0.4,0-0.7-0.1-1-0.4C515.3,620.8,515.2,620.4,515.2,620z"/>
		<path d="M543.3,578.8c0-0.4,0.1-0.7,0.4-1c0.3-0.3,0.6-0.4,1-0.4h0.8c0.4,0,0.7,0.1,1,0.4c0.3,0.3,0.4,0.6,0.4,1
			c0,0.3-0.1,0.6-0.3,0.9l1.2,15.7c0.2,2.3,0.8,4.1,1.9,5.4c1.1,1.3,2.5,1.9,4.2,1.9c3.1,0,5.4-0.2,6.8-0.7c1.5-0.5,3.1-1.5,4.9-3.1
			c1.8-1.5,3.2-3.7,4.1-6.7c0.9-2.9,1.5-7.1,1.8-12.4c-0.2-0.3-0.4-0.6-0.4-1c0-0.4,0.1-0.7,0.4-1s0.6-0.4,1-0.4h0.8
			c0.4,0,0.7,0.1,1,0.4c0.3,0.3,0.4,0.6,0.4,1c0,0.4-0.2,0.7-0.5,1c-0.3,5.6-0.9,10.1-2,13.4s-2.7,5.9-4.8,7.8c-2,1.7-4,2.9-5.9,3.5
			s-4.5,0.9-7.7,0.9c-2.6,0-4.6-0.9-6.2-2.7s-2.5-4.2-2.7-7.1l-1.2-15.8C543.4,579.6,543.3,579.2,543.3,578.8z M549,593.8
			c-0.3-0.3-0.4-0.6-0.4-1s0.1-0.7,0.4-1c0.3-0.3,0.6-0.4,1-0.4c1.5,0,2.6-0.1,3.3-0.3c0.6-0.2,1.3-0.7,2.2-1.4
			c0.7-0.6,1.3-1.8,1.8-3.6c0.5-1.8,0.8-3.9,0.9-6.4c-0.2-0.3-0.4-0.6-0.4-1c0-0.4,0.1-0.7,0.4-1c0.3-0.3,0.6-0.4,1-0.4h0.8
			c0.4,0,0.7,0.1,1,0.4c0.3,0.3,0.4,0.6,0.4,1c0,0.4-0.2,0.7-0.5,1c-0.2,6.1-1.4,10.1-3.7,12c-1,0.9-2.1,1.5-3.2,1.9
			c-1.1,0.3-2.5,0.5-4.1,0.5C549.6,594.2,549.3,594.1,549,593.8z"/>
		<path d="M579.4,578.8c0-0.4,0.1-0.7,0.4-1s0.6-0.4,1-0.4h0.8c0.4,0,0.7,0.1,1,0.4c0.3,0.3,0.4,0.6,0.4,1v4.4
			c1.8-2,3.9-3.5,6.4-4.5c2.5-1,5.1-1.5,8-1.5c1.7,0,3.1,0.3,4.4,0.8c1.3,0.5,2.2,1.2,3,2c0.7,0.8,1.3,1.8,1.8,3.1
			c0.4,1.2,0.7,2.4,0.9,3.6c0.2,1.2,0.2,2.5,0.2,4c0,4.7-1.4,8.4-4.2,11.1c-2.6,2.4-5.6,3.7-9,3.7c-1.2,0-2.4-0.2-3.7-0.5
			c-0.7-0.2-1-0.7-1-1.4v-0.8c0-0.4,0.1-0.7,0.4-1c0.3-0.3,0.6-0.4,1-0.4c0.3,0,0.6,0.1,0.9,0.3c0.3,0.2,0.4,0.5,0.5,0.8
			c0.9,0.1,1.5,0.2,2,0.2c2.7,0,5.1-1,7.1-2.9c2.3-2.1,3.4-5.1,3.4-9.1c0-1.3-0.1-2.4-0.2-3.4c-0.1-1-0.3-2-0.7-2.9
			c-0.3-1-0.8-1.7-1.3-2.3s-1.3-1.1-2.2-1.5s-2-0.6-3.2-0.6c-2.9,0-5.5,0.6-7.8,1.7c-2.3,1.1-4.2,2.7-5.7,4.8
			c-0.2,0.3-0.5,0.5-0.9,0.6v15.8c0.3,0.2,0.4,0.6,0.4,1c0,0.4-0.1,0.7-0.4,1c-0.3,0.3-0.6,0.4-1,0.4h-0.8c-0.4,0-0.7-0.1-1-0.4
			c-0.3-0.3-0.4-0.6-0.4-1c0-0.4,0.1-0.8,0.4-1v-22.7C579.6,579.9,579.4,579.4,579.4,578.8z"/>
		<path d="M611.8,578.8c0-0.4,0.1-0.7,0.4-1s0.6-0.4,1-0.4h0.8c0.4,0,0.7,0.1,1,0.4c0.3,0.3,0.4,0.6,0.4,1v4.4
			c1.8-2,3.9-3.5,6.4-4.5c2.5-1,5.1-1.5,8-1.5c1.7,0,3.1,0.3,4.4,0.8c1.3,0.5,2.2,1.2,3,2c0.7,0.8,1.3,1.8,1.8,3.1
			c0.4,1.2,0.7,2.4,0.9,3.6c0.2,1.2,0.2,2.5,0.2,4c0,4.7-1.4,8.4-4.2,11.1c-2.6,2.4-5.6,3.7-9,3.7c-1.2,0-2.4-0.2-3.7-0.5
			c-0.7-0.2-1-0.7-1-1.4v-0.8c0-0.4,0.1-0.7,0.4-1c0.3-0.3,0.6-0.4,1-0.4c0.3,0,0.6,0.1,0.9,0.3c0.3,0.2,0.4,0.5,0.5,0.8
			c0.9,0.1,1.5,0.2,2,0.2c2.7,0,5.1-1,7.1-2.9c2.3-2.1,3.4-5.1,3.4-9.1c0-1.3-0.1-2.4-0.2-3.4c-0.1-1-0.3-2-0.7-2.9
			c-0.3-1-0.8-1.7-1.3-2.3s-1.3-1.1-2.2-1.5s-2-0.6-3.2-0.6c-2.9,0-5.5,0.6-7.8,1.7c-2.3,1.1-4.2,2.7-5.7,4.8
			c-0.2,0.3-0.5,0.5-0.9,0.6v15.8c0.3,0.2,0.4,0.6,0.4,1c0,0.4-0.1,0.7-0.4,1c-0.3,0.3-0.6,0.4-1,0.4h-0.8c-0.4,0-0.7-0.1-1-0.4
			c-0.3-0.3-0.4-0.6-0.4-1c0-0.4,0.1-0.8,0.4-1v-22.7C612.1,579.9,611.8,579.4,611.8,578.8z"/>
	</g>
	<linearGradient id="SVGID_1_" gradientUnits="userSpaceOnUse" x1="43.5223" y1="489.7804" x2="635.6879" y2="489.7804">
		<stop  offset="0" style="stop-color:#EEA45A"/>
		<stop  offset="0.4788" style="stop-color:#5586C5"/>
		<stop  offset="1" style="stop-color:#E22682"/>
	</linearGradient>
	<line class="st2" x1="635.7" y1="489.8" x2="43.5" y2="489.8"/>
</g>
</svg>
