<svg xmlns="http://www.w3.org/2000/svg" viewBox="0 0 44.99 63.34"><defs><style>.cls-1{fill:#1d1d1b;}</style></defs><g id="Layer_2" data-name="Layer 2"><g id="Layer_1-2" data-name="Layer 1"><path class="cls-1" d="M1.68,36.76,19,0h5.56L41.8,36.76h-6l-14-29.88-14,29.88Z"/><path class="cls-1" d="M3.65,60.13H18.06a1.72,1.72,0,0,0,1-.21,1.43,1.43,0,0,0,.44-.84H20v4.26h-.53A1.43,1.43,0,0,0,19,62.5a1.63,1.63,0,0,0-1-.22H0v-.53a1.55,1.55,0,0,0,.85-.44,1.72,1.72,0,0,0,.21-1V41.68a1.63,1.63,0,0,0-.22-1A1.55,1.55,0,0,0,0,40.26v-.53H4.71v.53a1.55,1.55,0,0,0-.84.44,1.63,1.63,0,0,0-.22,1Z"/><path class="cls-1" d="M41.06,50.57A5.28,5.28,0,0,1,45,56a6,6,0,0,1-1.06,3.52,5.53,5.53,0,0,1-2.81,2.12,15.74,15.74,0,0,1-5,.62H23v-.53a1.55,1.55,0,0,0,.84-.44,1.7,1.7,0,0,0,.22-1V41.68a1.7,1.7,0,0,0-.22-1,1.38,1.38,0,0,0-.84-.44v-.53H36.4a14.3,14.3,0,0,1,3.28.31,6.56,6.56,0,0,1,2.29,1,5.43,5.43,0,0,1,2.28,4.7A5.05,5.05,0,0,1,41.06,50.57ZM26.6,49.46h8.69a26.36,26.36,0,0,0,2.77-.11,6.86,6.86,0,0,0,1.69-.43,3.18,3.18,0,0,0,1.49-1.23,3.49,3.49,0,0,0,.53-1.91,3.56,3.56,0,0,0-.94-2.48,4,4,0,0,0-2-1.12,16.85,16.85,0,0,0-3.72-.3H26.6Zm0,10.67h9a25.34,25.34,0,0,0,2.9-.12,6,6,0,0,0,1.75-.49,3.46,3.46,0,0,0,1.54-1.39A4.06,4.06,0,0,0,42.4,56a4.11,4.11,0,0,0-1-2.76A4,4,0,0,0,39.36,52a15.93,15.93,0,0,0-3.87-.34H26.6Z"/></g></g></svg>